<svg xmlns="http://www.w3.org/2000/svg" xmlns:xlink="http://www.w3.org/1999/xlink" version="1.1" width="792" height="612" viewBox="0 0 792 612">
<defs>
<clipPath id="clip_0">
<path transform="matrix(.36513473,0,0,.36513473,50.4,54)" d="M-2-2H1895V637H-2V-2Z"/>
</clipPath>
<clipPath id="clip_1">
<path transform="matrix(.36513473,0,0,.36513473,50.399999,54)" d="M-2-2H1895V637H-2V-2Z"/>
</clipPath>
<clipPath id="clip_2">
<path transform="matrix(.36513473,0,0,.36513473,50.399999,54)" d="M-2-2H1895V637H-2V-2Z"/>
</clipPath>
<clipPath id="clip_3">
<path transform="matrix(.36513473,0,0,.36513473,50.399999,54)" d="M-2-2H1895V637H-2V-2Z"/>
</clipPath>
<clipPath id="clip_4">
<path transform="matrix(.36513473,0,0,.36513473,50.399999,54)" d="M-2-2H1895V637H-2V-2Z"/>
</clipPath>
<clipPath id="clip_5">
<path transform="matrix(.36513473,0,0,.36513473,50.399999,54)" d="M-2-2H1895V637H-2V-2Z"/>
</clipPath>
<clipPath id="clip_6">
<path transform="matrix(.36513473,0,0,.36513473,50.399999,54)" d="M-2-2H1895V637H-2V-2Z"/>
</clipPath>
<clipPath id="clip_7">
<path transform="matrix(.36513473,0,0,.36513473,50.399999,54)" d="M-2-2H1895V637H-2V-2Z"/>
</clipPath>
<clipPath id="clip_8">
<path transform="matrix(.36513473,0,0,.36513473,50.399999,54)" d="M-2-2H1895V637H-2V-2Z"/>
</clipPath>
<clipPath id="clip_9">
<path transform="matrix(.36513473,0,0,.36513473,50.399999,54)" d="M-2-2H1895V637H-2V-2Z"/>
</clipPath>
<clipPath id="clip_10">
<path transform="matrix(.36513473,0,0,.36513473,50.399999,54)" d="M-2-2H1895V637H-2V-2Z"/>
</clipPath>
<clipPath id="clip_11">
<path transform="matrix(.36513473,0,0,.36513473,50.399999,54)" d="M-2-2H1895V637H-2V-2Z"/>
</clipPath>
<clipPath id="clip_12">
<path transform="matrix(.36513473,0,0,.36513473,50.399999,54)" d="M-2-2H1895V637H-2V-2Z"/>
</clipPath>
<clipPath id="clip_13">
<path transform="matrix(.36513473,0,0,.36513473,50.399999,54)" d="M-2-2H1895V637H-2V-2Z"/>
</clipPath>
<clipPath id="clip_14">
<path transform="matrix(.36513473,0,0,.36513473,50.399999,54)" d="M-2-2H1895V637H-2V-2Z"/>
</clipPath>
<clipPath id="clip_15">
<path transform="matrix(.36513473,0,0,.36513473,50.399999,54)" d="M-2-2H1895V637H-2V-2Z"/>
</clipPath>
<clipPath id="clip_16">
<path transform="matrix(.36513473,0,0,.36513473,50.399999,54)" d="M-2-2H1895V637H-2V-2Z"/>
</clipPath>
<clipPath id="clip_17">
<path transform="matrix(.36513473,0,0,.36513473,50.399999,54)" d="M-2-2H1895V637H-2V-2Z"/>
</clipPath>
<clipPath id="clip_18">
<path transform="matrix(.36513473,0,0,.36513473,50.399999,54)" d="M-2-2H1895V637H-2V-2Z"/>
</clipPath>
<clipPath id="clip_19">
<path transform="matrix(.36513473,0,0,.36513473,50.399999,54)" d="M-2-2H1895V637H-2V-2Z"/>
</clipPath>
<clipPath id="clip_20">
<path transform="matrix(.36513473,0,0,.36513473,50.399999,54)" d="M-2-2H1895V637H-2V-2Z"/>
</clipPath>
<clipPath id="clip_21">
<path transform="matrix(.36513473,0,0,.36513473,50.399999,54)" d="M-2-2H1895V637H-2V-2Z"/>
</clipPath>
<clipPath id="clip_22">
<path transform="matrix(.36513473,0,0,.36513473,50.399999,54)" d="M-2-2H1895V637H-2V-2Z"/>
</clipPath>
<clipPath id="clip_23">
<path transform="matrix(.36513473,0,0,.36513473,50.399999,54)" d="M-2-2H1895V637H-2V-2Z"/>
</clipPath>
<clipPath id="clip_24">
<path transform="matrix(.36513473,0,0,.36513473,50.399999,54)" d="M-2-2H1895V637H-2V-2Z"/>
</clipPath>
<clipPath id="clip_25">
<path transform="matrix(.36513473,0,0,.36513473,50.399999,54)" d="M-2-2H1895V637H-2V-2Z"/>
</clipPath>
<clipPath id="clip_26">
<path transform="matrix(.36513473,0,0,.36513473,50.399999,54)" d="M-2-2H1895V637H-2V-2Z"/>
</clipPath>
<clipPath id="clip_27">
<path transform="matrix(.36513473,0,0,.36513473,50.399999,54)" d="M-2-2H1895V637H-2V-2Z"/>
</clipPath>
<clipPath id="clip_28">
<path transform="matrix(.36513473,0,0,.36513473,50.399999,54)" d="M-2-2H1895V637H-2V-2Z"/>
</clipPath>
</defs>
<g>
<g clip-path="url(#clip_0)">
<path transform="matrix(.36513473,0,0,.36513473,50.4,54)" d="M0 510H1894V636H0V510Z" fill="#ffffff"/>
<path transform="matrix(.36513473,0,0,.36513473,50.4,54)" d="M-1-1H1894V30H-1V-1Z" fill="#356854"/>
<path transform="matrix(.36513473,0,0,.36513473,50.4,54)" d="M-1 29H1894V60H-1V29Z" fill="#ffffff"/>
<path transform="matrix(.36513473,0,0,.36513473,50.4,54)" d="M-1 59H1894V90H-1V59Z" fill="#f8f9fa"/>
<path transform="matrix(.36513473,0,0,.36513473,50.4,54)" d="M-1 89H1894V120H-1V89Z" fill="#ffffff"/>
<path transform="matrix(.36513473,0,0,.36513473,50.4,54)" d="M-1 119H1894V150H-1V119Z" fill="#f8f9fa"/>
<path transform="matrix(.36513473,0,0,.36513473,50.4,54)" d="M-1 149H1894V180H-1V149Z" fill="#ffffff"/>
<path transform="matrix(.36513473,0,0,.36513473,50.4,54)" d="M-1 179H1894V210H-1V179Z" fill="#f8f9fa"/>
<path transform="matrix(.36513473,0,0,.36513473,50.4,54)" d="M-1 209H1894V240H-1V209Z" fill="#ffffff"/>
<path transform="matrix(.36513473,0,0,.36513473,50.4,54)" d="M-1 239H1894V270H-1V239Z" fill="#f8f9fa"/>
<path transform="matrix(.36513473,0,0,.36513473,50.4,54)" d="M-1 269H1894V300H-1V269Z" fill="#ffffff"/>
<path transform="matrix(.36513473,0,0,.36513473,50.4,54)" d="M-1 299H1894V330H-1V299Z" fill="#f8f9fa"/>
<path transform="matrix(.36513473,0,0,.36513473,50.4,54)" d="M-1 329H1894V360H-1V329Z" fill="#ffffff"/>
<path transform="matrix(.36513473,0,0,.36513473,50.4,54)" d="M-1 359H1894V390H-1V359Z" fill="#f8f9fa"/>
<path transform="matrix(.36513473,0,0,.36513473,50.4,54)" d="M-1 389H1894V420H-1V389Z" fill="#ffffff"/>
<path transform="matrix(.36513473,0,0,.36513473,50.4,54)" d="M-1 419H1894V450H-1V419Z" fill="#f8f9fa"/>
<path transform="matrix(.36513473,0,0,.36513473,50.4,54)" d="M-1 449H1894V480H-1V449Z" fill="#ffffff"/>
<path transform="matrix(.36513473,0,0,.36513473,50.4,54)" d="M-1 479H1894V510H-1V479Z" fill="#f8f9fa"/>
<path transform="matrix(.36513473,0,0,.36513473,50.4,54)" d="M0 510V510 530H-1V510ZM0 531V531 551H-1V531ZM0 552V552 572H-1V552ZM0 573V573 593H-1V573ZM0 594V594 614H-1V594ZM0 615V615 635H-1V615ZM144 510V510 530H143V510ZM144 531V531 551H143V531ZM144 552V552 572H143V552ZM144 573V573 593H143V573ZM144 594V594 614H143V594ZM144 615V615 635H143V615ZM288 510V510 530H287V510ZM288 531V531 551H287V531ZM432 510V510 530H431V510ZM432 531V531 551H431V531ZM624 510V510 530H623V510ZM624 531V531 551H623V531ZM624 573V573 593H623V573ZM624 594V594 614H623V594ZM624 615V615 635H623V615ZM816 510V510 530H815V510ZM816 531V531 551H815V531ZM816 552V552 572H815V552ZM816 573V573 593H815V573ZM816 594V594 614H815V594ZM816 615V615 635H815V615ZM979 510V510 530H978V510ZM979 531V531 551H978V531ZM979 552V552 572H978V552ZM979 573V573 593H978V573ZM979 594V594 614H978V594ZM979 615V615 635H978V615ZM1125 510V510 530H1124V510ZM1125 531V531 551H1124V531ZM1125 552V552 572H1124V552ZM1125 573V573 593H1124V573ZM1125 594V594 614H1124V594ZM1125 615V615 635H1124V615ZM1290 510V510 530H1289V510ZM1290 531V531 551H1289V531ZM1290 552V552 572H1289V552ZM1290 573V573 593H1289V573ZM1290 594V594 614H1289V594ZM1290 615V615 635H1289V615ZM1438 510V510 530H1437V510ZM1438 531V531 551H1437V531ZM1438 552V552 572H1437V552ZM1438 573V573 593H1437V573ZM1438 594V594 614H1437V594ZM1438 615V615 635H1437V615ZM1587 510V510 530H1586V510ZM1587 531V531 551H1586V531ZM1587 552V552 572H1586V552ZM1587 573V573 593H1586V573ZM1587 594V594 614H1586V594ZM1587 615V615 635H1586V615ZM1731 510V510 530H1730V510ZM1731 531V531 551H1730V531ZM1731 552V552 572H1730V552ZM1731 573V573 593H1730V573ZM1731 594V594 614H1730V594ZM1731 615V615 635H1730V615ZM1894 510V510 530H1893V510ZM1894 531V531 551H1893V531ZM1894 552V552 572H1893V552ZM1894 573V573 593H1893V573ZM1894 594V594 614H1893V594ZM1894 615V615 635H1893V615ZM-1 530V530H1894V531H-1ZM-1 551V551H1894V552H-1ZM-1 572V572H1894V573H-1ZM-1 593V593H1894V594H-1ZM-1 614V614H1894V615H-1ZM-1 635V635H1894V636H-1Z" fill-opacity=".14901962"/>
<path transform="matrix(.36513473,0,0,.36513473,50.4,54)" stroke-width="1" stroke-linecap="butt" stroke-miterlimit="10" stroke-linejoin="miter" fill="none" stroke="#284e3f" d="M-.5-1V510M-1-.5H1894M-1 29.5H1894M-1 509.5H1894M1893.5-1V510"/>
<path transform="matrix(.36513473,0,0,.36513473,50.4,54)" stroke-width="1" stroke-linecap="butt" stroke-miterlimit="10" stroke-linejoin="miter" fill="none" stroke="#356854" d="M143.5 0V29M287.5 0V29M431.5 0V29M623.5 0V29M815.5 0V29M978.5 0V29M1124.5 0V29M1289.5 0V29M1437.5 0V29M1586.5 0V29M1730.5 0V29"/>
<path transform="matrix(.36513473,0,0,.36513473,50.4,54)" stroke-width="1" stroke-linecap="butt" stroke-miterlimit="10" stroke-linejoin="miter" fill="none" stroke="#ffffff" d="M143.5 30V59M143.5 90V119M143.5 150V179M143.5 210V239M143.5 270V299M143.5 330V359M143.5 390V419M143.5 450V479M287.5 30V59M287.5 90V119M287.5 150V179M287.5 210V239M287.5 270V299M287.5 330V359M287.5 390V419M287.5 450V479M431.5 30V59M431.5 90V119M431.5 150V179M431.5 210V239M431.5 270V299M431.5 330V359M431.5 390V419M431.5 450V479M623.5 30V59M623.5 90V119M623.5 150V179M623.5 210V239M623.5 270V299M623.5 330V359M623.5 390V419M623.5 450V479M815.5 30V59M815.5 90V119M815.5 150V179M815.5 210V239M815.5 270V299M815.5 330V359M815.5 390V419M815.5 450V479M978.5 30V59M978.5 90V119M978.5 150V179M978.5 210V239M978.5 270V299M978.5 330V359M978.5 390V419M978.5 450V479M1124.5 30V59M1124.5 90V119M1124.5 150V179M1124.5 210V239M1124.5 270V299M1124.5 330V359M1124.5 390V419M1124.5 450V479M1289.5 30V59M1289.5 90V119M1289.5 150V179M1289.5 210V239M1289.5 270V299M1289.5 330V359M1289.5 390V419M1289.5 450V479M1437.5 30V59M1437.5 90V119M1437.5 150V179M1437.5 210V239M1437.5 270V299M1437.5 330V359M1437.5 390V419M1437.5 450V479M1586.5 30V59M1586.5 90V119M1586.5 150V179M1586.5 210V239M1586.5 270V299M1586.5 330V359M1586.5 390V419M1586.5 450V479M1730.5 30V59M1730.5 90V119M1730.5 150V179M1730.5 210V239M1730.5 270V299M1730.5 330V359M1730.5 390V419M1730.5 450V479"/>
<path transform="matrix(.36513473,0,0,.36513473,50.4,54)" stroke-width="1" stroke-linecap="butt" stroke-miterlimit="10" stroke-linejoin="miter" fill="none" stroke="#f8f9fa" d="M143.5 59V90M143.5 119V150M143.5 179V210M143.5 239V270M143.5 299V330M143.5 359V390M143.5 419V450M143.5 479V509M287.5 59V90M287.5 119V150M287.5 179V210M287.5 239V270M287.5 299V330M287.5 359V390M287.5 419V450M287.5 479V509M431.5 59V90M431.5 119V150M431.5 179V210M431.5 239V270M431.5 299V330M431.5 359V390M431.5 419V450M431.5 479V509M623.5 59V90M623.5 119V150M623.5 179V210M623.5 239V270M623.5 299V330M623.5 359V390M623.5 419V450M623.5 479V509M815.5 59V90M815.5 119V150M815.5 179V210M815.5 239V270M815.5 299V330M815.5 359V390M815.5 419V450M815.5 479V509M978.5 59V90M978.5 119V150M978.5 179V210M978.5 239V270M978.5 299V330M978.5 359V390M978.5 419V450M978.5 479V509M1124.5 59V90M1124.5 119V150M1124.5 179V210M1124.5 239V270M1124.5 299V330M1124.5 359V390M1124.5 419V450M1124.5 479V509M1289.5 59V90M1289.5 119V150M1289.5 179V210M1289.5 239V270M1289.5 299V330M1289.5 359V390M1289.5 419V450M1289.5 479V509M1437.5 59V90M1437.5 119V150M1437.5 179V210M1437.5 239V270M1437.5 299V330M1437.5 359V390M1437.5 419V450M1437.5 479V509M1586.5 59V90M1586.5 119V150M1586.5 179V210M1586.5 239V270M1586.5 299V330M1586.5 359V390M1586.5 419V450M1586.5 479V509M1730.5 59V90M1730.5 119V150M1730.5 179V210M1730.5 239V270M1730.5 299V330M1730.5 359V390M1730.5 419V450M1730.5 479V509M0 59.5H1893M0 89.5H1893M0 119.5H1893M0 149.5H1893M0 179.5H1893M0 209.5H1893M0 239.5H1893M0 269.5H1893M0 299.5H1893M0 329.5H1893M0 359.5H1893M0 389.5H1893M0 419.5H1893M0 449.5H1893M0 479.5H1893"/>
<text fill="#ffffff" xml:space="preserve" transform="matrix(.36513473 0 0 .36513473 50.4 54)" font-size="13" font-family="Roboto"><tspan y="18.060547" x="34 43.256 50.419 61.807 69.1 75.977">Number</tspan></text>
<text fill="#ffffff" xml:space="preserve" transform="matrix(.36513473 0 0 .36513473 50.4 54)" font-size="13" font-family="Roboto"><tspan y="18.060547" x="178 186.476 190.87 202.258 208.953 214.81601 222.13501 229.54502 239.30802">Arms_down</tspan></text>
<text fill="#ffffff" xml:space="preserve" transform="matrix(.36513473 0 0 .36513473 50.4 54)" font-size="13" font-family="Roboto"><tspan y="18.060547" x="322 330.476 333.622 340.681 345.075 356.463 362.32603 369.73603">Alarm_on</tspan></text>
<text fill="#ffffff" xml:space="preserve" transform="matrix(.36513473 0 0 .36513473 50.4 54)" font-size="13" font-family="Roboto"><tspan y="18.060547" x="466 475.256 482.66603 487.37205 491.61006 498.76005 506.05305 513.463 520.62606 527.78909 535.10806 540.971 548.26406 552.541 559.418 566.11306 572.99008 580.1531">Northbound_present</tspan></text>
<text fill="#ffffff" xml:space="preserve" transform="matrix(.36513473 0 0 .36513473 50.4 54)" font-size="13" font-family="Roboto"><tspan y="18.060547" x="658 665.709 673.11898 680.282 684.51998 691.67 698.963 706.373 713.536 720.69906 728.01809 733.88107 741.1741 745.45108 752.32809 759.0231 765.9001 773.0631">Southbound_present</tspan></text>
<text fill="#ffffff" xml:space="preserve" transform="matrix(.36513473 0 0 .36513473 50.4 54)" font-size="13" font-family="Roboto"><tspan y="18.060547" x="850 857.163 864.573 869.279 873.51699 880.667 886.52999 893.589 900.882 908.17507 912.452 919.862 926.921 933.72006">north_approach</tspan></text>
<text fill="#ffffff" xml:space="preserve" transform="matrix(.36513473 0 0 .36513473 50.4 54)" font-size="13" font-family="Roboto"><tspan y="18.060547" x="1013 1020.163 1027.573 1032.279 1036.5171 1043.6671 1049.5302 1056.8491 1063.7261 1071.019 1078.078 1082.784">north_depart</tspan></text>
<text fill="#ffffff" xml:space="preserve" transform="matrix(.36513473 0 0 .36513473 50.4 54)" font-size="13" font-family="Roboto"><tspan y="18.060547" x="1159 1165.695 1173.105 1180.268 1184.506 1191.656 1197.519 1204.578 1211.871 1219.164 1223.441 1230.8511 1237.91 1244.709">south_approach</tspan></text>
<text fill="#ffffff" xml:space="preserve" transform="matrix(.36513473 0 0 .36513473 50.4 54)" font-size="13" font-family="Roboto"><tspan y="18.060547" x="1324 1330.695 1338.105 1345.268 1349.506 1356.656 1362.519 1369.838 1376.715 1384.0079 1391.0669 1395.773">south_depart</tspan></text>
<text fill="#ffffff" xml:space="preserve" transform="matrix(.36513473 0 0 .36513473 50.4 54)" font-size="13" font-family="Roboto"><tspan y="18.060547" x="1472 1476.238 1479.384 1490.772 1497.6489 1503.512 1510.3889 1513.5349 1520.5939 1527.8869 1534.5818 1541.4588">time_elapsed</tspan></text>
<text fill="#ffffff" xml:space="preserve" transform="matrix(.36513473 0 0 .36513473 50.4 54)" font-size="13" font-family="Roboto"><tspan y="18.060547" x="1595 1601.695 1608.7539 1613.122 1619.9989 1624.2369 1630.386 1636.249 1643.399 1650.458 1656.8931 1663.952 1668.2291">safety_hazard</tspan></text>
<text fill="#ffffff" xml:space="preserve" transform="matrix(.36513473 0 0 .36513473 50.4 54)" font-size="13" font-family="Roboto"><tspan y="18.060547" x="1765 1772.28 1776.4271 1783.4861 1790.649 1797.344 1800.49 1804.728 1807.874 1815.284 1822.447 1825.6581 1833.3671 1837.6051 1844.6641 1848.9021">Transition State</tspan></text>
<text fill="#434343" xml:space="preserve" transform="matrix(.36513473 0 0 .36513473 50.4 54)" font-size="13" font-family="Roboto"><tspan y="48.060548" x="127.700199">0</tspan></text>
<text fill="#434343" xml:space="preserve" transform="matrix(.36513473 0 0 .36513473 50.4 54)" font-size="13" font-family="Roboto"><tspan y="48.060548" x="271.7002">0</tspan></text>
<text fill="#434343" xml:space="preserve" transform="matrix(.36513473 0 0 .36513473 50.4 54)" font-size="13" font-family="Roboto"><tspan y="48.060548" x="415.7002">0</tspan></text>
<text fill="#434343" xml:space="preserve" transform="matrix(.36513473 0 0 .36513473 50.4 54)" font-size="13" font-family="Roboto"><tspan y="48.060548" x="607.7002">0</tspan></text>
<text fill="#434343" xml:space="preserve" transform="matrix(.36513473 0 0 .36513473 50.4 54)" font-size="13" font-family="Roboto"><tspan y="48.060548" x="799.7002">0</tspan></text>
<text fill="#434343" xml:space="preserve" transform="matrix(.36513473 0 0 .36513473 50.4 54)" font-size="13" font-family="Roboto"><tspan y="48.060548" x="962.7002">0</tspan></text>
<text fill="#434343" xml:space="preserve" transform="matrix(.36513473 0 0 .36513473 50.4 54)" font-size="13" font-family="Roboto"><tspan y="48.060548" x="1108.7002">0</tspan></text>
<text fill="#434343" xml:space="preserve" transform="matrix(.36513473 0 0 .36513473 50.4 54)" font-size="13" font-family="Roboto"><tspan y="48.060548" x="1273.7002">0</tspan></text>
<text fill="#434343" xml:space="preserve" transform="matrix(.36513473 0 0 .36513473 50.4 54)" font-size="13" font-family="Roboto"><tspan y="48.060548" x="1421.7002">0</tspan></text>
<text fill="#434343" xml:space="preserve" transform="matrix(.36513473 0 0 .36513473 50.4 54)" font-size="13" font-family="Roboto"><tspan y="48.060548" x="1570.7002">0</tspan></text>
<text fill="#434343" xml:space="preserve" transform="matrix(.36513473 0 0 .36513473 50.4 54)" font-size="13" font-family="Roboto"><tspan y="48.060548" x="1595 1604.256">No</tspan></text>
<text fill="#434343" xml:space="preserve" transform="matrix(.36513473 0 0 .36513473 50.4 54)" font-size="13" font-family="Roboto"><tspan y="48.060548" x="1877.7002">0</tspan></text>
<text fill="#434343" xml:space="preserve" transform="matrix(.36513473 0 0 .36513473 50.4 54)" font-size="13" font-family="Roboto"><tspan y="78.06055" x="127.700199">1</tspan></text>
<text fill="#434343" xml:space="preserve" transform="matrix(.36513473 0 0 .36513473 50.4 54)" font-size="13" font-family="Roboto"><tspan y="78.06055" x="271.7002">0</tspan></text>
<text fill="#434343" xml:space="preserve" transform="matrix(.36513473 0 0 .36513473 50.4 54)" font-size="13" font-family="Roboto"><tspan y="78.06055" x="415.7002">0</tspan></text>
<text fill="#434343" xml:space="preserve" transform="matrix(.36513473 0 0 .36513473 50.4 54)" font-size="13" font-family="Roboto"><tspan y="78.06055" x="607.7002">0</tspan></text>
<text fill="#434343" xml:space="preserve" transform="matrix(.36513473 0 0 .36513473 50.4 54)" font-size="13" font-family="Roboto"><tspan y="78.06055" x="799.7002">1</tspan></text>
<text fill="#434343" xml:space="preserve" transform="matrix(.36513473 0 0 .36513473 50.4 54)" font-size="13" font-family="Roboto"><tspan y="78.06055" x="962.7002">0</tspan></text>
<text fill="#434343" xml:space="preserve" transform="matrix(.36513473 0 0 .36513473 50.4 54)" font-size="13" font-family="Roboto"><tspan y="78.06055" x="1108.7002">0</tspan></text>
<text fill="#434343" xml:space="preserve" transform="matrix(.36513473 0 0 .36513473 50.4 54)" font-size="13" font-family="Roboto"><tspan y="78.06055" x="1273.7002">1</tspan></text>
<text fill="#434343" xml:space="preserve" transform="matrix(.36513473 0 0 .36513473 50.4 54)" font-size="13" font-family="Roboto"><tspan y="78.06055" x="1421.7002">0</tspan></text>
<text fill="#434343" xml:space="preserve" transform="matrix(.36513473 0 0 .36513473 50.4 54)" font-size="13" font-family="Roboto"><tspan y="78.06055" x="1570.7002">0</tspan></text>
<text fill="#434343" xml:space="preserve" transform="matrix(.36513473 0 0 .36513473 50.4 54)" font-size="13" font-family="Roboto"><tspan y="78.06055" x="1595 1602.3971 1609.274 1615.969 1619.18 1626.473 1633.766 1636.314 1639.525 1646.818">Yes 16, 17</tspan></text>
<text fill="#434343" xml:space="preserve" transform="matrix(.36513473 0 0 .36513473 50.4 54)" font-size="13" font-family="Roboto"><tspan y="108.06055" x="127.700199">2</tspan></text>
<text fill="#434343" xml:space="preserve" transform="matrix(.36513473 0 0 .36513473 50.4 54)" font-size="13" font-family="Roboto"><tspan y="108.06055" x="271.7002">0</tspan></text>
<text fill="#434343" xml:space="preserve" transform="matrix(.36513473 0 0 .36513473 50.4 54)" font-size="13" font-family="Roboto"><tspan y="108.06055" x="415.7002">0</tspan></text>
<text fill="#434343" xml:space="preserve" transform="matrix(.36513473 0 0 .36513473 50.4 54)" font-size="13" font-family="Roboto"><tspan y="108.06055" x="607.7002">1</tspan></text>
<text fill="#434343" xml:space="preserve" transform="matrix(.36513473 0 0 .36513473 50.4 54)" font-size="13" font-family="Roboto"><tspan y="108.06055" x="799.7002">0</tspan></text>
<text fill="#434343" xml:space="preserve" transform="matrix(.36513473 0 0 .36513473 50.4 54)" font-size="13" font-family="Roboto"><tspan y="108.06055" x="962.7002">1</tspan></text>
<text fill="#434343" xml:space="preserve" transform="matrix(.36513473 0 0 .36513473 50.4 54)" font-size="13" font-family="Roboto"><tspan y="108.06055" x="1108.7002">0</tspan></text>
<text fill="#434343" xml:space="preserve" transform="matrix(.36513473 0 0 .36513473 50.4 54)" font-size="13" font-family="Roboto"><tspan y="108.06055" x="1273.7002">0</tspan></text>
<text fill="#434343" xml:space="preserve" transform="matrix(.36513473 0 0 .36513473 50.4 54)" font-size="13" font-family="Roboto"><tspan y="108.06055" x="1421.7002">0</tspan></text>
<text fill="#434343" xml:space="preserve" transform="matrix(.36513473 0 0 .36513473 50.4 54)" font-size="13" font-family="Roboto"><tspan y="108.06055" x="1570.7002">0</tspan></text>
<text fill="#434343" xml:space="preserve" transform="matrix(.36513473 0 0 .36513473 50.4 54)" font-size="13" font-family="Roboto"><tspan y="108.06055" x="1595 1602.3971 1609.274 1615.969 1619.18 1626.473 1633.766 1636.314 1639.525 1646.818">Yes 16, 17</tspan></text>
<text fill="#434343" xml:space="preserve" transform="matrix(.36513473 0 0 .36513473 50.4 54)" font-size="13" font-family="Roboto"><tspan y="138.06055" x="127.700199">3</tspan></text>
<text fill="#434343" xml:space="preserve" transform="matrix(.36513473 0 0 .36513473 50.4 54)" font-size="13" font-family="Roboto"><tspan y="138.06055" x="271.7002">0</tspan></text>
<text fill="#434343" xml:space="preserve" transform="matrix(.36513473 0 0 .36513473 50.4 54)" font-size="13" font-family="Roboto"><tspan y="138.06055" x="415.7002">0</tspan></text>
<text fill="#434343" xml:space="preserve" transform="matrix(.36513473 0 0 .36513473 50.4 54)" font-size="13" font-family="Roboto"><tspan y="138.06055" x="607.7002">1</tspan></text>
<text fill="#434343" xml:space="preserve" transform="matrix(.36513473 0 0 .36513473 50.4 54)" font-size="13" font-family="Roboto"><tspan y="138.06055" x="799.7002">1</tspan></text>
<text fill="#434343" xml:space="preserve" transform="matrix(.36513473 0 0 .36513473 50.4 54)" font-size="13" font-family="Roboto"><tspan y="138.06055" x="962.7002">1</tspan></text>
<text fill="#434343" xml:space="preserve" transform="matrix(.36513473 0 0 .36513473 50.4 54)" font-size="13" font-family="Roboto"><tspan y="138.06055" x="1108.7002">0</tspan></text>
<text fill="#434343" xml:space="preserve" transform="matrix(.36513473 0 0 .36513473 50.4 54)" font-size="13" font-family="Roboto"><tspan y="138.06055" x="1273.7002">1</tspan></text>
<text fill="#434343" xml:space="preserve" transform="matrix(.36513473 0 0 .36513473 50.4 54)" font-size="13" font-family="Roboto"><tspan y="138.06055" x="1421.7002">0</tspan></text>
<text fill="#434343" xml:space="preserve" transform="matrix(.36513473 0 0 .36513473 50.4 54)" font-size="13" font-family="Roboto"><tspan y="138.06055" x="1570.7002">0</tspan></text>
<text fill="#434343" xml:space="preserve" transform="matrix(.36513473 0 0 .36513473 50.4 54)" font-size="13" font-family="Roboto"><tspan y="138.06055" x="1595 1602.3971 1609.274 1615.969 1619.18 1626.473 1633.766 1636.314 1639.525 1646.818">Yes 16, 17</tspan></text>
<text fill="#434343" xml:space="preserve" transform="matrix(.36513473 0 0 .36513473 50.4 54)" font-size="13" font-family="Roboto"><tspan y="168.06055" x="127.700199">4</tspan></text>
<text fill="#434343" xml:space="preserve" transform="matrix(.36513473 0 0 .36513473 50.4 54)" font-size="13" font-family="Roboto"><tspan y="168.06055" x="271.7002">0</tspan></text>
<text fill="#434343" xml:space="preserve" transform="matrix(.36513473 0 0 .36513473 50.4 54)" font-size="13" font-family="Roboto"><tspan y="168.06055" x="415.7002">1</tspan></text>
<text fill="#434343" xml:space="preserve" transform="matrix(.36513473 0 0 .36513473 50.4 54)" font-size="13" font-family="Roboto"><tspan y="168.06055" x="607.7002">0</tspan></text>
<text fill="#434343" xml:space="preserve" transform="matrix(.36513473 0 0 .36513473 50.4 54)" font-size="13" font-family="Roboto"><tspan y="168.06055" x="799.7002">0</tspan></text>
<text fill="#434343" xml:space="preserve" transform="matrix(.36513473 0 0 .36513473 50.4 54)" font-size="13" font-family="Roboto"><tspan y="168.06055" x="962.7002">0</tspan></text>
<text fill="#434343" xml:space="preserve" transform="matrix(.36513473 0 0 .36513473 50.4 54)" font-size="13" font-family="Roboto"><tspan y="168.06055" x="1108.7002">0</tspan></text>
<text fill="#434343" xml:space="preserve" transform="matrix(.36513473 0 0 .36513473 50.4 54)" font-size="13" font-family="Roboto"><tspan y="168.06055" x="1273.7002">0</tspan></text>
<text fill="#434343" xml:space="preserve" transform="matrix(.36513473 0 0 .36513473 50.4 54)" font-size="13" font-family="Roboto"><tspan y="168.06055" x="1421.7002">0</tspan></text>
<text fill="#434343" xml:space="preserve" transform="matrix(.36513473 0 0 .36513473 50.4 54)" font-size="13" font-family="Roboto"><tspan y="168.06055" x="1570.7002">1</tspan></text>
<text fill="#434343" xml:space="preserve" transform="matrix(.36513473 0 0 .36513473 50.4 54)" font-size="13" font-family="Roboto"><tspan y="168.06055" x="1595 1604.256">No</tspan></text>
<text fill="#434343" xml:space="preserve" transform="matrix(.36513473 0 0 .36513473 50.4 54)" font-size="13" font-family="Roboto"><tspan y="168.06055" x="1877.7002">0</tspan></text>
<text fill="#434343" xml:space="preserve" transform="matrix(.36513473 0 0 .36513473 50.4 54)" font-size="13" font-family="Roboto"><tspan y="198.06055" x="127.700199">5</tspan></text>
<text fill="#434343" xml:space="preserve" transform="matrix(.36513473 0 0 .36513473 50.4 54)" font-size="13" font-family="Roboto"><tspan y="198.06055" x="271.7002">0</tspan></text>
<text fill="#434343" xml:space="preserve" transform="matrix(.36513473 0 0 .36513473 50.4 54)" font-size="13" font-family="Roboto"><tspan y="198.06055" x="415.7002">1</tspan></text>
<text fill="#434343" xml:space="preserve" transform="matrix(.36513473 0 0 .36513473 50.4 54)" font-size="13" font-family="Roboto"><tspan y="198.06055" x="607.7002">0</tspan></text>
<text fill="#434343" xml:space="preserve" transform="matrix(.36513473 0 0 .36513473 50.4 54)" font-size="13" font-family="Roboto"><tspan y="198.06055" x="799.7002">1</tspan></text>
<text fill="#434343" xml:space="preserve" transform="matrix(.36513473 0 0 .36513473 50.4 54)" font-size="13" font-family="Roboto"><tspan y="198.06055" x="962.7002">0</tspan></text>
<text fill="#434343" xml:space="preserve" transform="matrix(.36513473 0 0 .36513473 50.4 54)" font-size="13" font-family="Roboto"><tspan y="198.06055" x="1108.7002">0</tspan></text>
<text fill="#434343" xml:space="preserve" transform="matrix(.36513473 0 0 .36513473 50.4 54)" font-size="13" font-family="Roboto"><tspan y="198.06055" x="1273.7002">1</tspan></text>
<text fill="#434343" xml:space="preserve" transform="matrix(.36513473 0 0 .36513473 50.4 54)" font-size="13" font-family="Roboto"><tspan y="198.06055" x="1421.7002">0</tspan></text>
<text fill="#434343" xml:space="preserve" transform="matrix(.36513473 0 0 .36513473 50.4 54)" font-size="13" font-family="Roboto"><tspan y="198.06055" x="1570.7002">1</tspan></text>
<text fill="#434343" xml:space="preserve" transform="matrix(.36513473 0 0 .36513473 50.4 54)" font-size="13" font-family="Roboto"><tspan y="198.06055" x="1595 1602.3971 1609.274 1615.969 1619.18 1626.473">Yes 17</tspan></text>
<text fill="#434343" xml:space="preserve" transform="matrix(.36513473 0 0 .36513473 50.4 54)" font-size="13" font-family="Roboto"><tspan y="198.06055" x="1877.7002">4</tspan></text>
<text fill="#434343" xml:space="preserve" transform="matrix(.36513473 0 0 .36513473 50.4 54)" font-size="13" font-family="Roboto"><tspan y="228.06055" x="127.700199">6</tspan></text>
<text fill="#434343" xml:space="preserve" transform="matrix(.36513473 0 0 .36513473 50.4 54)" font-size="13" font-family="Roboto"><tspan y="228.06055" x="271.7002">0</tspan></text>
<text fill="#434343" xml:space="preserve" transform="matrix(.36513473 0 0 .36513473 50.4 54)" font-size="13" font-family="Roboto"><tspan y="228.06055" x="415.7002">1</tspan></text>
<text fill="#434343" xml:space="preserve" transform="matrix(.36513473 0 0 .36513473 50.4 54)" font-size="13" font-family="Roboto"><tspan y="228.06055" x="607.7002">1</tspan></text>
<text fill="#434343" xml:space="preserve" transform="matrix(.36513473 0 0 .36513473 50.4 54)" font-size="13" font-family="Roboto"><tspan y="228.06055" x="799.7002">0</tspan></text>
<text fill="#434343" xml:space="preserve" transform="matrix(.36513473 0 0 .36513473 50.4 54)" font-size="13" font-family="Roboto"><tspan y="228.06055" x="962.7002">1</tspan></text>
<text fill="#434343" xml:space="preserve" transform="matrix(.36513473 0 0 .36513473 50.4 54)" font-size="13" font-family="Roboto"><tspan y="228.06055" x="1108.7002">0</tspan></text>
<text fill="#434343" xml:space="preserve" transform="matrix(.36513473 0 0 .36513473 50.4 54)" font-size="13" font-family="Roboto"><tspan y="228.06055" x="1273.7002">0</tspan></text>
<text fill="#434343" xml:space="preserve" transform="matrix(.36513473 0 0 .36513473 50.4 54)" font-size="13" font-family="Roboto"><tspan y="228.06055" x="1421.7002">0</tspan></text>
<text fill="#434343" xml:space="preserve" transform="matrix(.36513473 0 0 .36513473 50.4 54)" font-size="13" font-family="Roboto"><tspan y="228.06055" x="1570.7002">1</tspan></text>
<text fill="#434343" xml:space="preserve" transform="matrix(.36513473 0 0 .36513473 50.4 54)" font-size="13" font-family="Roboto"><tspan y="228.06055" x="1595 1602.3971 1609.274 1615.969 1619.18 1626.473">Yes 17</tspan></text>
<text fill="#434343" xml:space="preserve" transform="matrix(.36513473 0 0 .36513473 50.4 54)" font-size="13" font-family="Roboto"><tspan y="228.06055" x="1877.7002">4</tspan></text>
<text fill="#434343" xml:space="preserve" transform="matrix(.36513473 0 0 .36513473 50.4 54)" font-size="13" font-family="Roboto"><tspan y="258.06056" x="127.700199">7</tspan></text>
<text fill="#434343" xml:space="preserve" transform="matrix(.36513473 0 0 .36513473 50.4 54)" font-size="13" font-family="Roboto"><tspan y="258.06056" x="271.7002">0</tspan></text>
<text fill="#434343" xml:space="preserve" transform="matrix(.36513473 0 0 .36513473 50.4 54)" font-size="13" font-family="Roboto"><tspan y="258.06056" x="415.7002">1</tspan></text>
<text fill="#434343" xml:space="preserve" transform="matrix(.36513473 0 0 .36513473 50.4 54)" font-size="13" font-family="Roboto"><tspan y="258.06056" x="607.7002">1</tspan></text>
<text fill="#434343" xml:space="preserve" transform="matrix(.36513473 0 0 .36513473 50.4 54)" font-size="13" font-family="Roboto"><tspan y="258.06056" x="799.7002">1</tspan></text>
<text fill="#434343" xml:space="preserve" transform="matrix(.36513473 0 0 .36513473 50.4 54)" font-size="13" font-family="Roboto"><tspan y="258.06056" x="962.7002">1</tspan></text>
<text fill="#434343" xml:space="preserve" transform="matrix(.36513473 0 0 .36513473 50.4 54)" font-size="13" font-family="Roboto"><tspan y="258.06056" x="1108.7002">0</tspan></text>
<text fill="#434343" xml:space="preserve" transform="matrix(.36513473 0 0 .36513473 50.4 54)" font-size="13" font-family="Roboto"><tspan y="258.06056" x="1273.7002">1</tspan></text>
<text fill="#434343" xml:space="preserve" transform="matrix(.36513473 0 0 .36513473 50.4 54)" font-size="13" font-family="Roboto"><tspan y="258.06056" x="1421.7002">0</tspan></text>
<text fill="#434343" xml:space="preserve" transform="matrix(.36513473 0 0 .36513473 50.4 54)" font-size="13" font-family="Roboto"><tspan y="258.06056" x="1570.7002">1</tspan></text>
<text fill="#434343" xml:space="preserve" transform="matrix(.36513473 0 0 .36513473 50.4 54)" font-size="13" font-family="Roboto"><tspan y="258.06056" x="1595 1602.3971 1609.274 1615.969 1619.18 1626.473">Yes 17</tspan></text>
<text fill="#434343" xml:space="preserve" transform="matrix(.36513473 0 0 .36513473 50.4 54)" font-size="13" font-family="Roboto"><tspan y="258.06056" x="1877.7002">4</tspan></text>
<text fill="#434343" xml:space="preserve" transform="matrix(.36513473 0 0 .36513473 50.4 54)" font-size="13" font-family="Roboto"><tspan y="288.06056" x="127.700199">8</tspan></text>
<text fill="#434343" xml:space="preserve" transform="matrix(.36513473 0 0 .36513473 50.4 54)" font-size="13" font-family="Roboto"><tspan y="288.06056" x="271.7002">1</tspan></text>
<text fill="#434343" xml:space="preserve" transform="matrix(.36513473 0 0 .36513473 50.4 54)" font-size="13" font-family="Roboto"><tspan y="288.06056" x="415.7002">0</tspan></text>
<text fill="#434343" xml:space="preserve" transform="matrix(.36513473 0 0 .36513473 50.4 54)" font-size="13" font-family="Roboto"><tspan y="288.06056" x="607.7002">0</tspan></text>
<text fill="#434343" xml:space="preserve" transform="matrix(.36513473 0 0 .36513473 50.4 54)" font-size="13" font-family="Roboto"><tspan y="288.06056" x="799.7002">0</tspan></text>
<text fill="#434343" xml:space="preserve" transform="matrix(.36513473 0 0 .36513473 50.4 54)" font-size="13" font-family="Roboto"><tspan y="288.06056" x="962.7002">0</tspan></text>
<text fill="#434343" xml:space="preserve" transform="matrix(.36513473 0 0 .36513473 50.4 54)" font-size="13" font-family="Roboto"><tspan y="288.06056" x="1108.7002">0</tspan></text>
<text fill="#434343" xml:space="preserve" transform="matrix(.36513473 0 0 .36513473 50.4 54)" font-size="13" font-family="Roboto"><tspan y="288.06056" x="1273.7002">0</tspan></text>
<text fill="#434343" xml:space="preserve" transform="matrix(.36513473 0 0 .36513473 50.4 54)" font-size="13" font-family="Roboto"><tspan y="288.06056" x="1421.7002">0</tspan></text>
<text fill="#434343" xml:space="preserve" transform="matrix(.36513473 0 0 .36513473 50.4 54)" font-size="13" font-family="Roboto"><tspan y="288.06056" x="1570.7002">0</tspan></text>
<text fill="#434343" xml:space="preserve" transform="matrix(.36513473 0 0 .36513473 50.4 54)" font-size="13" font-family="Roboto"><tspan y="288.06056" x="1595 1604.256">No</tspan></text>
<text fill="#434343" xml:space="preserve" transform="matrix(.36513473 0 0 .36513473 50.4 54)" font-size="13" font-family="Roboto"><tspan y="288.06056" x="1877.7002">4</tspan></text>
<text fill="#434343" xml:space="preserve" transform="matrix(.36513473 0 0 .36513473 50.4 54)" font-size="13" font-family="Roboto"><tspan y="318.06056" x="127.700199">9</tspan></text>
<text fill="#434343" xml:space="preserve" transform="matrix(.36513473 0 0 .36513473 50.4 54)" font-size="13" font-family="Roboto"><tspan y="318.06056" x="271.7002">1</tspan></text>
<text fill="#434343" xml:space="preserve" transform="matrix(.36513473 0 0 .36513473 50.4 54)" font-size="13" font-family="Roboto"><tspan y="318.06056" x="415.7002">0</tspan></text>
<text fill="#434343" xml:space="preserve" transform="matrix(.36513473 0 0 .36513473 50.4 54)" font-size="13" font-family="Roboto"><tspan y="318.06056" x="607.7002">0</tspan></text>
<text fill="#434343" xml:space="preserve" transform="matrix(.36513473 0 0 .36513473 50.4 54)" font-size="13" font-family="Roboto"><tspan y="318.06056" x="799.7002">1</tspan></text>
<text fill="#434343" xml:space="preserve" transform="matrix(.36513473 0 0 .36513473 50.4 54)" font-size="13" font-family="Roboto"><tspan y="318.06056" x="962.7002">0</tspan></text>
<text fill="#434343" xml:space="preserve" transform="matrix(.36513473 0 0 .36513473 50.4 54)" font-size="13" font-family="Roboto"><tspan y="318.06056" x="1108.7002">0</tspan></text>
<text fill="#434343" xml:space="preserve" transform="matrix(.36513473 0 0 .36513473 50.4 54)" font-size="13" font-family="Roboto"><tspan y="318.06056" x="1273.7002">1</tspan></text>
<text fill="#434343" xml:space="preserve" transform="matrix(.36513473 0 0 .36513473 50.4 54)" font-size="13" font-family="Roboto"><tspan y="318.06056" x="1421.7002">0</tspan></text>
<text fill="#434343" xml:space="preserve" transform="matrix(.36513473 0 0 .36513473 50.4 54)" font-size="13" font-family="Roboto"><tspan y="318.06056" x="1570.7002">0</tspan></text>
<text fill="#434343" xml:space="preserve" transform="matrix(.36513473 0 0 .36513473 50.4 54)" font-size="13" font-family="Roboto"><tspan y="318.06056" x="1595 1602.3971 1609.274 1615.969 1619.18 1626.473">Yes 16</tspan></text>
<text fill="#434343" xml:space="preserve" transform="matrix(.36513473 0 0 .36513473 50.4 54)" font-size="13" font-family="Roboto"><tspan y="348.06056" x="120.40039 127.69339">10</tspan></text>
<text fill="#434343" xml:space="preserve" transform="matrix(.36513473 0 0 .36513473 50.4 54)" font-size="13" font-family="Roboto"><tspan y="348.06056" x="271.7002">1</tspan></text>
<text fill="#434343" xml:space="preserve" transform="matrix(.36513473 0 0 .36513473 50.4 54)" font-size="13" font-family="Roboto"><tspan y="348.06056" x="415.7002">0</tspan></text>
<text fill="#434343" xml:space="preserve" transform="matrix(.36513473 0 0 .36513473 50.4 54)" font-size="13" font-family="Roboto"><tspan y="348.06056" x="607.7002">1</tspan></text>
<text fill="#434343" xml:space="preserve" transform="matrix(.36513473 0 0 .36513473 50.4 54)" font-size="13" font-family="Roboto"><tspan y="348.06056" x="799.7002">0</tspan></text>
<text fill="#434343" xml:space="preserve" transform="matrix(.36513473 0 0 .36513473 50.4 54)" font-size="13" font-family="Roboto"><tspan y="348.06056" x="962.7002">1</tspan></text>
<text fill="#434343" xml:space="preserve" transform="matrix(.36513473 0 0 .36513473 50.4 54)" font-size="13" font-family="Roboto"><tspan y="348.06056" x="1108.7002">0</tspan></text>
<text fill="#434343" xml:space="preserve" transform="matrix(.36513473 0 0 .36513473 50.4 54)" font-size="13" font-family="Roboto"><tspan y="348.06056" x="1273.7002">0</tspan></text>
<text fill="#434343" xml:space="preserve" transform="matrix(.36513473 0 0 .36513473 50.4 54)" font-size="13" font-family="Roboto"><tspan y="348.06056" x="1421.7002">0</tspan></text>
<text fill="#434343" xml:space="preserve" transform="matrix(.36513473 0 0 .36513473 50.4 54)" font-size="13" font-family="Roboto"><tspan y="348.06056" x="1570.7002">0</tspan></text>
<text fill="#434343" xml:space="preserve" transform="matrix(.36513473 0 0 .36513473 50.4 54)" font-size="13" font-family="Roboto"><tspan y="348.06056" x="1595 1602.3971 1609.274 1615.969 1619.18 1626.473">Yes 16</tspan></text>
<text fill="#434343" xml:space="preserve" transform="matrix(.36513473 0 0 .36513473 50.4 54)" font-size="13" font-family="Roboto"><tspan y="378.06056" x="120.40039 127.69339">11</tspan></text>
<text fill="#434343" xml:space="preserve" transform="matrix(.36513473 0 0 .36513473 50.4 54)" font-size="13" font-family="Roboto"><tspan y="378.06056" x="271.7002">1</tspan></text>
<text fill="#434343" xml:space="preserve" transform="matrix(.36513473 0 0 .36513473 50.4 54)" font-size="13" font-family="Roboto"><tspan y="378.06056" x="415.7002">0</tspan></text>
<text fill="#434343" xml:space="preserve" transform="matrix(.36513473 0 0 .36513473 50.4 54)" font-size="13" font-family="Roboto"><tspan y="378.06056" x="607.7002">1</tspan></text>
<text fill="#434343" xml:space="preserve" transform="matrix(.36513473 0 0 .36513473 50.4 54)" font-size="13" font-family="Roboto"><tspan y="378.06056" x="799.7002">1</tspan></text>
<text fill="#434343" xml:space="preserve" transform="matrix(.36513473 0 0 .36513473 50.4 54)" font-size="13" font-family="Roboto"><tspan y="378.06056" x="962.7002">1</tspan></text>
<text fill="#434343" xml:space="preserve" transform="matrix(.36513473 0 0 .36513473 50.4 54)" font-size="13" font-family="Roboto"><tspan y="378.06056" x="1108.7002">0</tspan></text>
<text fill="#434343" xml:space="preserve" transform="matrix(.36513473 0 0 .36513473 50.4 54)" font-size="13" font-family="Roboto"><tspan y="378.06056" x="1273.7002">1</tspan></text>
<text fill="#434343" xml:space="preserve" transform="matrix(.36513473 0 0 .36513473 50.4 54)" font-size="13" font-family="Roboto"><tspan y="378.06056" x="1421.7002">0</tspan></text>
<text fill="#434343" xml:space="preserve" transform="matrix(.36513473 0 0 .36513473 50.4 54)" font-size="13" font-family="Roboto"><tspan y="378.06056" x="1570.7002">0</tspan></text>
<text fill="#434343" xml:space="preserve" transform="matrix(.36513473 0 0 .36513473 50.4 54)" font-size="13" font-family="Roboto"><tspan y="378.06056" x="1595 1602.3971 1609.274 1615.969 1619.18 1626.473">Yes 16</tspan></text>
<text fill="#434343" xml:space="preserve" transform="matrix(.36513473 0 0 .36513473 50.4 54)" font-size="13" font-family="Roboto"><tspan y="408.06056" x="120.40039 127.69339">12</tspan></text>
<text fill="#434343" xml:space="preserve" transform="matrix(.36513473 0 0 .36513473 50.4 54)" font-size="13" font-family="Roboto"><tspan y="408.06056" x="271.7002">1</tspan></text>
<text fill="#434343" xml:space="preserve" transform="matrix(.36513473 0 0 .36513473 50.4 54)" font-size="13" font-family="Roboto"><tspan y="408.06056" x="415.7002">1</tspan></text>
<text fill="#434343" xml:space="preserve" transform="matrix(.36513473 0 0 .36513473 50.4 54)" font-size="13" font-family="Roboto"><tspan y="408.06056" x="607.7002">0</tspan></text>
<text fill="#434343" xml:space="preserve" transform="matrix(.36513473 0 0 .36513473 50.4 54)" font-size="13" font-family="Roboto"><tspan y="408.06056" x="799.7002">0</tspan></text>
<text fill="#434343" xml:space="preserve" transform="matrix(.36513473 0 0 .36513473 50.4 54)" font-size="13" font-family="Roboto"><tspan y="408.06056" x="962.7002">0</tspan></text>
<text fill="#434343" xml:space="preserve" transform="matrix(.36513473 0 0 .36513473 50.4 54)" font-size="13" font-family="Roboto"><tspan y="408.06056" x="1108.7002">0</tspan></text>
<text fill="#434343" xml:space="preserve" transform="matrix(.36513473 0 0 .36513473 50.4 54)" font-size="13" font-family="Roboto"><tspan y="408.06056" x="1273.7002">0</tspan></text>
<text fill="#434343" xml:space="preserve" transform="matrix(.36513473 0 0 .36513473 50.4 54)" font-size="13" font-family="Roboto"><tspan y="408.06056" x="1421.7002">0</tspan></text>
<text fill="#434343" xml:space="preserve" transform="matrix(.36513473 0 0 .36513473 50.4 54)" font-size="13" font-family="Roboto"><tspan y="408.06056" x="1570.7002">1</tspan></text>
<text fill="#434343" xml:space="preserve" transform="matrix(.36513473 0 0 .36513473 50.4 54)" font-size="13" font-family="Roboto"><tspan y="408.06056" x="1595 1604.256">No</tspan></text>
<text fill="#434343" xml:space="preserve" transform="matrix(.36513473 0 0 .36513473 50.4 54)" font-size="13" font-family="Roboto"><tspan y="408.06056" x="1877.7002">0</tspan></text>
<text fill="#434343" xml:space="preserve" transform="matrix(.36513473 0 0 .36513473 50.4 54)" font-size="13" font-family="Roboto"><tspan y="438.06056" x="120.40039 127.69339">13</tspan></text>
<text fill="#434343" xml:space="preserve" transform="matrix(.36513473 0 0 .36513473 50.4 54)" font-size="13" font-family="Roboto"><tspan y="438.06056" x="271.7002">1</tspan></text>
<text fill="#434343" xml:space="preserve" transform="matrix(.36513473 0 0 .36513473 50.4 54)" font-size="13" font-family="Roboto"><tspan y="438.06056" x="415.7002">1</tspan></text>
<text fill="#434343" xml:space="preserve" transform="matrix(.36513473 0 0 .36513473 50.4 54)" font-size="13" font-family="Roboto"><tspan y="438.06056" x="607.7002">0</tspan></text>
<text fill="#434343" xml:space="preserve" transform="matrix(.36513473 0 0 .36513473 50.4 54)" font-size="13" font-family="Roboto"><tspan y="438.06056" x="799.7002">1</tspan></text>
<text fill="#434343" xml:space="preserve" transform="matrix(.36513473 0 0 .36513473 50.4 54)" font-size="13" font-family="Roboto"><tspan y="438.06056" x="962.7002">0</tspan></text>
<text fill="#434343" xml:space="preserve" transform="matrix(.36513473 0 0 .36513473 50.4 54)" font-size="13" font-family="Roboto"><tspan y="438.06056" x="1108.7002">0</tspan></text>
<text fill="#434343" xml:space="preserve" transform="matrix(.36513473 0 0 .36513473 50.4 54)" font-size="13" font-family="Roboto"><tspan y="438.06056" x="1273.7002">0</tspan></text>
<text fill="#434343" xml:space="preserve" transform="matrix(.36513473 0 0 .36513473 50.4 54)" font-size="13" font-family="Roboto"><tspan y="438.06056" x="1421.7002">1</tspan></text>
<text fill="#434343" xml:space="preserve" transform="matrix(.36513473 0 0 .36513473 50.4 54)" font-size="13" font-family="Roboto"><tspan y="438.06056" x="1570.7002">1</tspan></text>
<text fill="#434343" xml:space="preserve" transform="matrix(.36513473 0 0 .36513473 50.4 54)" font-size="13" font-family="Roboto"><tspan y="438.06056" x="1595 1604.256">No</tspan></text>
<text fill="#434343" xml:space="preserve" transform="matrix(.36513473 0 0 .36513473 50.4 54)" font-size="13" font-family="Roboto"><tspan y="438.06056" x="1877.7002">0</tspan></text>
<text fill="#434343" xml:space="preserve" transform="matrix(.36513473 0 0 .36513473 50.4 54)" font-size="13" font-family="Roboto"><tspan y="468.06056" x="120.40039 127.69339">14</tspan></text>
<text fill="#434343" xml:space="preserve" transform="matrix(.36513473 0 0 .36513473 50.4 54)" font-size="13" font-family="Roboto"><tspan y="468.06056" x="271.7002">1</tspan></text>
<text fill="#434343" xml:space="preserve" transform="matrix(.36513473 0 0 .36513473 50.4 54)" font-size="13" font-family="Roboto"><tspan y="468.06056" x="415.7002">1</tspan></text>
<text fill="#434343" xml:space="preserve" transform="matrix(.36513473 0 0 .36513473 50.4 54)" font-size="13" font-family="Roboto"><tspan y="468.06056" x="607.7002">1</tspan></text>
<text fill="#434343" xml:space="preserve" transform="matrix(.36513473 0 0 .36513473 50.4 54)" font-size="13" font-family="Roboto"><tspan y="468.06056" x="799.7002">0</tspan></text>
<text fill="#434343" xml:space="preserve" transform="matrix(.36513473 0 0 .36513473 50.4 54)" font-size="13" font-family="Roboto"><tspan y="468.06056" x="962.7002">0</tspan></text>
<text fill="#434343" xml:space="preserve" transform="matrix(.36513473 0 0 .36513473 50.4 54)" font-size="13" font-family="Roboto"><tspan y="468.06056" x="1108.7002">1</tspan></text>
<text fill="#434343" xml:space="preserve" transform="matrix(.36513473 0 0 .36513473 50.4 54)" font-size="13" font-family="Roboto"><tspan y="468.06056" x="1273.7002">0</tspan></text>
<text fill="#434343" xml:space="preserve" transform="matrix(.36513473 0 0 .36513473 50.4 54)" font-size="13" font-family="Roboto"><tspan y="468.06056" x="1421.7002">0</tspan></text>
<text fill="#434343" xml:space="preserve" transform="matrix(.36513473 0 0 .36513473 50.4 54)" font-size="13" font-family="Roboto"><tspan y="468.06056" x="1570.7002">1</tspan></text>
<text fill="#434343" xml:space="preserve" transform="matrix(.36513473 0 0 .36513473 50.4 54)" font-size="13" font-family="Roboto"><tspan y="468.06056" x="1595 1604.256">No</tspan></text>
<text fill="#434343" xml:space="preserve" transform="matrix(.36513473 0 0 .36513473 50.4 54)" font-size="13" font-family="Roboto"><tspan y="468.06056" x="1877.7002">0</tspan></text>
<text fill="#434343" xml:space="preserve" transform="matrix(.36513473 0 0 .36513473 50.4 54)" font-size="13" font-family="Roboto"><tspan y="498.06056" x="120.40039 127.69339">15</tspan></text>
<text fill="#434343" xml:space="preserve" transform="matrix(.36513473 0 0 .36513473 50.4 54)" font-size="13" font-family="Roboto"><tspan y="498.06056" x="271.7002">1</tspan></text>
<text fill="#434343" xml:space="preserve" transform="matrix(.36513473 0 0 .36513473 50.4 54)" font-size="13" font-family="Roboto"><tspan y="498.06056" x="415.7002">1</tspan></text>
<text fill="#434343" xml:space="preserve" transform="matrix(.36513473 0 0 .36513473 50.4 54)" font-size="13" font-family="Roboto"><tspan y="498.06056" x="607.7002">1</tspan></text>
<text fill="#434343" xml:space="preserve" transform="matrix(.36513473 0 0 .36513473 50.4 54)" font-size="13" font-family="Roboto"><tspan y="498.06056" x="799.7002">1</tspan></text>
<text fill="#434343" xml:space="preserve" transform="matrix(.36513473 0 0 .36513473 50.4 54)" font-size="13" font-family="Roboto"><tspan y="498.06056" x="962.7002">0</tspan></text>
<text fill="#434343" xml:space="preserve" transform="matrix(.36513473 0 0 .36513473 50.4 54)" font-size="13" font-family="Roboto"><tspan y="498.06056" x="1108.7002">1</tspan></text>
<text fill="#434343" xml:space="preserve" transform="matrix(.36513473 0 0 .36513473 50.4 54)" font-size="13" font-family="Roboto"><tspan y="498.06056" x="1273.7002">0</tspan></text>
<text fill="#434343" xml:space="preserve" transform="matrix(.36513473 0 0 .36513473 50.4 54)" font-size="13" font-family="Roboto"><tspan y="498.06056" x="1421.7002">1</tspan></text>
<text fill="#434343" xml:space="preserve" transform="matrix(.36513473 0 0 .36513473 50.4 54)" font-size="13" font-family="Roboto"><tspan y="498.06056" x="1570.7002">1</tspan></text>
<text fill="#434343" xml:space="preserve" transform="matrix(.36513473 0 0 .36513473 50.4 54)" font-size="13" font-family="Roboto"><tspan y="498.06056" x="1595 1604.256">No</tspan></text>
<text fill="#434343" xml:space="preserve" transform="matrix(.36513473 0 0 .36513473 50.4 54)" font-size="13" font-family="Roboto"><tspan y="498.06056" x="1877.7002">0</tspan></text>
<text xml:space="preserve" transform="matrix(.36513473 0 0 .36513473 50.4 54)" font-size="13" font-family="ArialMT"><tspan y="546.2451" x="3 12.386001 19.614003 30.443003 37.671007 44.899007">Number</tspan></text>
<text xml:space="preserve" transform="matrix(.36513473 0 0 .36513473 50.4 54)" font-size="13" font-family="ArialMT"><tspan y="546.2451" x="147 150.601 157.829 164.329 171.55699 175.88599 178.77199 185.99999 193.22798">Invariant</tspan></text>
<text xml:space="preserve" transform="matrix(.36513473 0 0 .36513473 50.4 54)" font-size="13" font-family="ArialMT"><tspan y="567.2451" x="125.54004 132.76804">16</tspan></text>
<text xml:space="preserve" transform="matrix(.36513473 0 0 .36513473 50.4 54)" font-size="13" font-family="ArialMT"><tspan y="567.2451" x="147 154.93 162.15799 169.38599 172.98699 180.21498 183.10099 190.32898 194.65798 205.48697 209.08797 213.41696 220.64496 231.47396 238.70195 241.58795 248.81595 255.31595 258.91697 266.14497 272.64497 276.24598 279.13197 285.63197 292.85997 296.46098 305.84696 313.07496 315.96095 318.84693 326.07493 329.67594 336.90394 340.50495 344.10597 348.43498 355.66297 358.54896 365.77696 369.37797 372.26396 378.76396 382.36497 389.59297 393.92198 401.14997 407.64997 414.87797 422.10597 425.70698">The alarm remains active while a train is present.</tspan></text>
<text xml:space="preserve" transform="matrix(.36513473 0 0 .36513473 50.4 54)" font-size="13" font-family="ArialMT"><tspan y="588.2451" x="125.54004 132.76804">17</tspan></text>
<text xml:space="preserve" transform="matrix(.36513473 0 0 .36513473 50.4 54)" font-size="13" font-family="ArialMT"><tspan y="588.2451" x="147 154.93 162.15799 169.38599 172.98699 180.21498 187.44298 191.77198 196.10097 198.98697 206.21497 210.54396 214.14496 220.64496 224.24596 231.47396 237.97396 244.47396 248.07495 255.30295 262.53096 271.91694 279.14494 282.74595 289.97395 297.20195 300.80296 303.68894 306.57493 310.17594 317.40394 320.28993 323.1759 326.77693 330.37794 334.70695 341.93495 344.82093 352.04893 358.54893 362.14994 369.37794 376.60594 383.83393 391.06193 395.39094 398.99195">The barrier stays down until all trains depart.</tspan></text>
<text xml:space="preserve" transform="matrix(.36513473 0 0 .36513473 50.4 54)" font-size="13" font-family="ArialMT"><tspan y="609.2451" x="125.54004 132.76804">18</tspan></text>
<text xml:space="preserve" transform="matrix(.36513473 0 0 .36513473 50.4 54)" font-size="13" font-family="ArialMT"><tspan y="609.2451" x="147 155.658 162.886 172.272 179.5 183.829 187.43 190.316 197.54399 201.14499 208.37299 212.70198 217.03098 224.25897 231.48697 235.08797 237.97397 245.20197 252.42996 258.92997 262.53099 269.75898 276.98698 283.48698 290.71498 295.04399 298.645 305.145 312.373 319.60099 326.10099 333.32899 336.93 344.158 351.386 357.886 365.11399 368.715 375.943 379.544 386.044 389.64503 396.87303 400.47404 407.70204 414.20204">Power interruptions never cause unsafe states.</tspan></text>
<text xml:space="preserve" transform="matrix(.36513473 0 0 .36513473 50.4 54)" font-size="13" font-family="ArialMT"><tspan y="630.2451" x="125.54004 132.76804">19</tspan></text>
<text xml:space="preserve" transform="matrix(.36513473 0 0 .36513473 50.4 54)" font-size="13" font-family="ArialMT"><tspan y="630.2451" x="147 159.259 166.487 173.715 180.943 184.54399 191.77199 198.99999 208.38599 215.61399 219.94298 223.54398 226.42998 232.92998 236.53098 239.41698 246.64498 250.24597 257.47398 261.80299 266.132 273.36 280.58799 284.189 291.417 298.645 302.246 305.84703 309.44804 316.67604 323.90403 327.50505 334.73304 337.61903 344.84703 349.17604 360.00505 363.60606 370.10606 376.60606 383.10606 386.70707 393.93507 404.76408 408.36509 414.86509 418.4661 425.6941 432.1941 435.7951 443.0231 450.2511 453.8521 457.45314 461.05415 468.28215 472.61116 476.21217 483.44017 487.76918 494.99717 501.49717 504.38316 511.61116 518.8392 525.3392 528.9402 535.4402 539.0412 546.2692 549.87026">When power is interrupted, the alarm system stay on , or previous state</tspan></text>
<path transform="matrix(.36513473,0,0,.36513473,50.4,54)" d="M12.4 19.8 12.9 17.8H10.4L10.7 16.6H13.2L13.9 13.8H11.2L11.5 12.6H14.2L14.8 10.2H16L15.4 12.6H17.8L18.4 10.2H19.6L19 12.6H21.6L21.3 13.8H18.7L18 16.6H20.8L20.5 17.8H17.7L17.2 19.8H16L16.5 17.8H14.1L13.6 19.8H12.4ZM14.4 16.6H16.8L17.5 13.8H15.1L14.4 16.6Z" fill="#ffffff"/>
<path transform="matrix(.36513473,0,0,.36513473,50.4,54)" d="M156.4 19.8 156.9 17.8H154.4L154.7 16.6H157.2L157.9 13.8H155.2L155.5 12.6H158.2L158.8 10.2H160L159.4 12.6H161.8L162.4 10.2H163.6L163 12.6H165.6L165.3 13.8H162.7L162 16.6H164.8L164.5 17.8H161.7L161.2 19.8H160L160.5 17.8H158.1L157.6 19.8H156.4ZM158.4 16.6H160.8L161.5 13.8H159.1L158.4 16.6Z" fill="#ffffff"/>
<path transform="matrix(.36513473,0,0,.36513473,50.4,54)" d="M300.4 19.8 300.9 17.8H298.4L298.7 16.6H301.2L301.9 13.8H299.2L299.5 12.6H302.2L302.8 10.2H304L303.4 12.6H305.8L306.4 10.2H307.6L307 12.6H309.6L309.3 13.8H306.7L306 16.6H308.8L308.5 17.8H305.7L305.2 19.8H304L304.5 17.8H302.1L301.6 19.8H300.4ZM302.4 16.6H304.8L305.5 13.8H303.1L302.4 16.6Z" fill="#ffffff"/>
<path transform="matrix(.36513473,0,0,.36513473,50.4,54)" d="M444.4 19.8 444.9 17.8H442.4L442.7 16.6H445.2L445.9 13.8H443.2L443.5 12.6H446.2L446.8 10.2H448L447.4 12.6H449.8L450.4 10.2H451.6L451 12.6H453.6L453.3 13.8H450.7L450 16.6H452.8L452.5 17.8H449.7L449.2 19.8H448L448.5 17.8H446.1L445.6 19.8H444.4ZM446.4 16.6H448.8L449.5 13.8H447.1L446.4 16.6Z" fill="#ffffff"/>
<path transform="matrix(.36513473,0,0,.36513473,50.4,54)" d="M636.4 19.8 636.9 17.8H634.4L634.7 16.6H637.2L637.9 13.8H635.2L635.5 12.6H638.2L638.8 10.2H640L639.4 12.6H641.8L642.4 10.2H643.6L643 12.6H645.6L645.3 13.8H642.7L642 16.6H644.8L644.5 17.8H641.7L641.2 19.8H640L640.5 17.8H638.1L637.6 19.8H636.4ZM638.4 16.6H640.8L641.5 13.8H639.1L638.4 16.6Z" fill="#ffffff"/>
<path transform="matrix(.36513473,0,0,.36513473,50.4,54)" d="M828.4 19.8 828.9 17.8H826.4L826.7 16.6H829.2L829.9 13.8H827.2L827.5 12.6H830.2L830.8 10.2H832L831.4 12.6H833.8L834.4 10.2H835.6L835 12.6H837.6L837.3 13.8H834.7L834 16.6H836.8L836.5 17.8H833.7L833.2 19.8H832L832.5 17.8H830.1L829.6 19.8H828.4ZM830.4 16.6H832.8L833.5 13.8H831.1L830.4 16.6Z" fill="#ffffff"/>
<path transform="matrix(.36513473,0,0,.36513473,50.4,54)" d="M991.4 19.8 991.9 17.8H989.4L989.7 16.6H992.2L992.9 13.8H990.2L990.5 12.6H993.2L993.8 10.2H995L994.4 12.6H996.8L997.4 10.2H998.6L998 12.6H1000.6L1000.3 13.8H997.7L997 16.6H999.8L999.5 17.8H996.7L996.2 19.8H995L995.5 17.8H993.1L992.6 19.8H991.4ZM993.4 16.6H995.8L996.5 13.8H994.1L993.4 16.6Z" fill="#ffffff"/>
<path transform="matrix(.36513473,0,0,.36513473,50.4,54)" d="M1137.4 19.8 1137.9 17.8H1135.4L1135.7 16.6H1138.2L1138.9 13.8H1136.2L1136.5 12.6H1139.2L1139.8 10.2H1141L1140.4 12.6H1142.8L1143.4 10.2H1144.6L1144 12.6H1146.6L1146.3 13.8H1143.7L1143 16.6H1145.8L1145.5 17.8H1142.7L1142.2 19.8H1141L1141.5 17.8H1139.1L1138.6 19.8H1137.4ZM1139.4 16.6H1141.8L1142.5 13.8H1140.1L1139.4 16.6Z" fill="#ffffff"/>
<path transform="matrix(.36513473,0,0,.36513473,50.4,54)" d="M1302.4 19.8 1302.9 17.8H1300.4L1300.7 16.6H1303.2L1303.9 13.8H1301.2L1301.5 12.6H1304.2L1304.8 10.2H1306L1305.4 12.6H1307.8L1308.4 10.2H1309.6L1309 12.6H1311.6L1311.3 13.8H1308.7L1308 16.6H1310.8L1310.5 17.8H1307.7L1307.2 19.8H1306L1306.5 17.8H1304.1L1303.6 19.8H1302.4ZM1304.4 16.6H1306.8L1307.5 13.8H1305.1L1304.4 16.6Z" fill="#ffffff"/>
<path transform="matrix(.36513473,0,0,.36513473,50.4,54)" d="M1450.4 19.8 1450.9 17.8H1448.4L1448.7 16.6H1451.2L1451.9 13.8H1449.2L1449.5 12.6H1452.2L1452.8 10.2H1454L1453.4 12.6H1455.8L1456.4 10.2H1457.6L1457 12.6H1459.6L1459.3 13.8H1456.7L1456 16.6H1458.8L1458.5 17.8H1455.7L1455.2 19.8H1454L1454.5 17.8H1452.1L1451.6 19.8H1450.4ZM1452.4 16.6H1454.8L1455.5 13.8H1453.1L1452.4 16.6Z" fill="#ffffff"/>
<path transform="matrix(.36513473,0,0,.36513473,50.4,54)" d="M1743.4 19.8 1743.9 17.8H1741.4L1741.7 16.6H1744.2L1744.9 13.8H1742.2L1742.5 12.6H1745.2L1745.8 10.2H1747L1746.4 12.6H1748.8L1749.4 10.2H1750.6L1750 12.6H1752.6L1752.3 13.8H1749.7L1749 16.6H1751.8L1751.5 17.8H1748.7L1748.2 19.8H1747L1747.5 17.8H1745.1L1744.6 19.8H1743.4ZM1745.4 16.6H1747.8L1748.5 13.8H1746.1L1745.4 16.6Z" fill="#ffffff"/>
</g>
<g clip-path="url(#clip_1)">
<path transform="matrix(.36513473,0,0,.36513473,50.399999,54)" d="M0-1V30H1V-1Z" fill="#284e3f"/>
<path transform="matrix(.36513473,0,0,.36513473,50.399999,54)" d="M0 0H143V1H0Z" fill="#284e3f"/>
</g>
<g clip-path="url(#clip_2)">
<path transform="matrix(.36513473,0,0,.36513473,50.399999,54)" d="M144 0H287V1H144Z" fill="#284e3f"/>
</g>
<g clip-path="url(#clip_3)">
<path transform="matrix(.36513473,0,0,.36513473,50.399999,54)" d="M288 0H431V1H288Z" fill="#284e3f"/>
</g>
<g clip-path="url(#clip_4)">
<path transform="matrix(.36513473,0,0,.36513473,50.399999,54)" d="M432 0H623V1H432Z" fill="#284e3f"/>
</g>
<g clip-path="url(#clip_5)">
<path transform="matrix(.36513473,0,0,.36513473,50.399999,54)" d="M624 0H815V1H624Z" fill="#284e3f"/>
</g>
<g clip-path="url(#clip_6)">
<path transform="matrix(.36513473,0,0,.36513473,50.399999,54)" d="M816 0H978V1H816Z" fill="#284e3f"/>
</g>
<g clip-path="url(#clip_7)">
<path transform="matrix(.36513473,0,0,.36513473,50.399999,54)" d="M979 0H1124V1H979Z" fill="#284e3f"/>
</g>
<g clip-path="url(#clip_8)">
<path transform="matrix(.36513473,0,0,.36513473,50.399999,54)" d="M1125 0H1289V1H1125Z" fill="#284e3f"/>
</g>
<g clip-path="url(#clip_9)">
<path transform="matrix(.36513473,0,0,.36513473,50.399999,54)" d="M1290 0H1437V1H1290Z" fill="#284e3f"/>
</g>
<g clip-path="url(#clip_10)">
<path transform="matrix(.36513473,0,0,.36513473,50.399999,54)" d="M1438 0H1586V1H1438Z" fill="#284e3f"/>
</g>
<g clip-path="url(#clip_11)">
<path transform="matrix(.36513473,0,0,.36513473,50.399999,54)" d="M1587 0H1730V1H1587Z" fill="#284e3f"/>
</g>
<g clip-path="url(#clip_12)">
<path transform="matrix(.36513473,0,0,.36513473,50.399999,54)" d="M1731 0H1893V1H1731Z" fill="#284e3f"/>
</g>
<g clip-path="url(#clip_13)">
<path transform="matrix(.36513473,0,0,.36513473,50.399999,54)" d="M0 29V60H1V29Z" fill="#284e3f"/>
</g>
<g clip-path="url(#clip_14)">
<path transform="matrix(.36513473,0,0,.36513473,50.399999,54)" d="M0 59V90H1V59Z" fill="#284e3f"/>
</g>
<g clip-path="url(#clip_15)">
<path transform="matrix(.36513473,0,0,.36513473,50.399999,54)" d="M0 89V120H1V89Z" fill="#284e3f"/>
</g>
<g clip-path="url(#clip_16)">
<path transform="matrix(.36513473,0,0,.36513473,50.399999,54)" d="M0 119V150H1V119Z" fill="#284e3f"/>
</g>
<g clip-path="url(#clip_17)">
<path transform="matrix(.36513473,0,0,.36513473,50.399999,54)" d="M0 149V180H1V149Z" fill="#284e3f"/>
</g>
<g clip-path="url(#clip_18)">
<path transform="matrix(.36513473,0,0,.36513473,50.399999,54)" d="M0 179V210H1V179Z" fill="#284e3f"/>
</g>
<g clip-path="url(#clip_19)">
<path transform="matrix(.36513473,0,0,.36513473,50.399999,54)" d="M0 209V240H1V209Z" fill="#284e3f"/>
</g>
<g clip-path="url(#clip_20)">
<path transform="matrix(.36513473,0,0,.36513473,50.399999,54)" d="M0 239V270H1V239Z" fill="#284e3f"/>
</g>
<g clip-path="url(#clip_21)">
<path transform="matrix(.36513473,0,0,.36513473,50.399999,54)" d="M0 269V300H1V269Z" fill="#284e3f"/>
</g>
<g clip-path="url(#clip_22)">
<path transform="matrix(.36513473,0,0,.36513473,50.399999,54)" d="M0 299V330H1V299Z" fill="#284e3f"/>
</g>
<g clip-path="url(#clip_23)">
<path transform="matrix(.36513473,0,0,.36513473,50.399999,54)" d="M0 329V360H1V329Z" fill="#284e3f"/>
</g>
<g clip-path="url(#clip_24)">
<path transform="matrix(.36513473,0,0,.36513473,50.399999,54)" d="M0 359V390H1V359Z" fill="#284e3f"/>
</g>
<g clip-path="url(#clip_25)">
<path transform="matrix(.36513473,0,0,.36513473,50.399999,54)" d="M0 389V420H1V389Z" fill="#284e3f"/>
</g>
<g clip-path="url(#clip_26)">
<path transform="matrix(.36513473,0,0,.36513473,50.399999,54)" d="M0 419V450H1V419Z" fill="#284e3f"/>
</g>
<g clip-path="url(#clip_27)">
<path transform="matrix(.36513473,0,0,.36513473,50.399999,54)" d="M0 449V480H1V449Z" fill="#284e3f"/>
</g>
<g clip-path="url(#clip_28)">
<path transform="matrix(.36513473,0,0,.36513473,50.399999,54)" d="M0 479V509H1V479Z" fill="#284e3f"/>
</g>
</g>
</svg>
