<svg xmlns="http://www.w3.org/2000/svg" xmlns:xlink="http://www.w3.org/1999/xlink" version="1.1" width="792" height="612" viewBox="0 0 792 612">
<defs>
<clipPath id="clip_0">
<path transform="matrix(.40092809,0,0,.40092809,50.4,54)" d="M-2-2H1726V442H-2V-2Z"/>
</clipPath>
</defs>
<g>
<g clip-path="url(#clip_0)">
<path transform="matrix(.40092809,0,0,.40092809,50.4,54)" d="M0 0H1725V441H0V0Z" fill="#ffffff"/>
<path transform="matrix(.40092809,0,0,.40092809,50.4,54)" d="M0 0V0 20H-1V0ZM0 21V21 41H-1V21ZM0 42V42 62H-1V42ZM0 63V63 83H-1V63ZM0 84V84 104H-1V84ZM0 105V105 125H-1V105ZM0 126V126 146H-1V126ZM0 147V147 167H-1V147ZM0 168V168 188H-1V168ZM0 189V189 209H-1V189ZM0 210V210 230H-1V210ZM0 231V231 251H-1V231ZM0 252V252 272H-1V252ZM0 273V273 293H-1V273ZM0 294V294 314H-1V294ZM0 315V315 335H-1V315ZM0 336V336 356H-1V336ZM0 357V357 377H-1V357ZM0 378V378 398H-1V378ZM0 399V399 419H-1V399ZM0 420V420 440H-1V420ZM144 0V0 20H143V0ZM144 21V21 41H143V21ZM144 42V42 62H143V42ZM144 63V63 83H143V63ZM144 84V84 104H143V84ZM144 105V105 125H143V105ZM144 126V126 146H143V126ZM144 147V147 167H143V147ZM144 168V168 188H143V168ZM144 189V189 209H143V189ZM144 210V210 230H143V210ZM144 231V231 251H143V231ZM144 252V252 272H143V252ZM144 273V273 293H143V273ZM144 294V294 314H143V294ZM144 315V315 335H143V315ZM144 336V336 356H143V336ZM144 357V357 377H143V357ZM144 378V378 398H143V378ZM144 399V399 419H143V399ZM144 420V420 440H143V420ZM288 0V0 20H287V0ZM288 21V21 41H287V21ZM288 42V42 62H287V42ZM288 63V63 83H287V63ZM288 84V84 104H287V84ZM288 105V105 125H287V105ZM288 126V126 146H287V126ZM288 147V147 167H287V147ZM288 168V168 188H287V168ZM288 189V189 209H287V189ZM288 210V210 230H287V210ZM288 231V231 251H287V231ZM288 252V252 272H287V252ZM288 273V273 293H287V273ZM288 294V294 314H287V294ZM288 315V315 335H287V315ZM288 336V336 356H287V336ZM288 357V357 377H287V357ZM288 378V378 398H287V378ZM432 0V0 20H431V0ZM432 21V21 41H431V21ZM432 42V42 62H431V42ZM432 63V63 83H431V63ZM432 84V84 104H431V84ZM432 105V105 125H431V105ZM432 126V126 146H431V126ZM432 147V147 167H431V147ZM432 168V168 188H431V168ZM432 189V189 209H431V189ZM432 210V210 230H431V210ZM432 231V231 251H431V231ZM432 252V252 272H431V252ZM432 273V273 293H431V273ZM432 294V294 314H431V294ZM432 315V315 335H431V315ZM432 336V336 356H431V336ZM432 357V357 377H431V357ZM432 378V378 398H431V378ZM576 0V0 20H575V0ZM576 21V21 41H575V21ZM576 42V42 62H575V42ZM576 63V63 83H575V63ZM576 84V84 104H575V84ZM576 105V105 125H575V105ZM576 126V126 146H575V126ZM576 147V147 167H575V147ZM576 168V168 188H575V168ZM576 189V189 209H575V189ZM576 210V210 230H575V210ZM576 231V231 251H575V231ZM576 252V252 272H575V252ZM576 273V273 293H575V273ZM576 294V294 314H575V294ZM576 315V315 335H575V315ZM576 336V336 356H575V336ZM576 357V357 377H575V357ZM576 378V378 398H575V378ZM576 420V420 440H575V420ZM720 0V0 20H719V0ZM720 21V21 41H719V21ZM720 42V42 62H719V42ZM720 63V63 83H719V63ZM720 84V84 104H719V84ZM720 105V105 125H719V105ZM720 126V126 146H719V126ZM720 147V147 167H719V147ZM720 168V168 188H719V168ZM720 189V189 209H719V189ZM720 210V210 230H719V210ZM720 231V231 251H719V231ZM720 252V252 272H719V252ZM720 273V273 293H719V273ZM720 294V294 314H719V294ZM720 315V315 335H719V315ZM720 336V336 356H719V336ZM720 357V357 377H719V357ZM720 378V378 398H719V378ZM720 399V399 419H719V399ZM720 420V420 440H719V420ZM864 0V0 20H863V0ZM864 21V21 41H863V21ZM864 42V42 62H863V42ZM864 63V63 83H863V63ZM864 84V84 104H863V84ZM864 105V105 125H863V105ZM864 126V126 146H863V126ZM864 147V147 167H863V147ZM864 168V168 188H863V168ZM864 189V189 209H863V189ZM864 210V210 230H863V210ZM864 231V231 251H863V231ZM864 252V252 272H863V252ZM864 273V273 293H863V273ZM864 294V294 314H863V294ZM864 315V315 335H863V315ZM864 336V336 356H863V336ZM864 357V357 377H863V357ZM864 378V378 398H863V378ZM864 399V399 419H863V399ZM864 420V420 440H863V420ZM1008 0V0 20H1007V0ZM1008 21V21 41H1007V21ZM1008 42V42 62H1007V42ZM1008 63V63 83H1007V63ZM1008 84V84 104H1007V84ZM1008 105V105 125H1007V105ZM1008 126V126 146H1007V126ZM1008 147V147 167H1007V147ZM1008 168V168 188H1007V168ZM1008 189V189 209H1007V189ZM1008 210V210 230H1007V210ZM1008 231V231 251H1007V231ZM1008 252V252 272H1007V252ZM1008 273V273 293H1007V273ZM1008 294V294 314H1007V294ZM1008 315V315 335H1007V315ZM1008 336V336 356H1007V336ZM1008 357V357 377H1007V357ZM1008 378V378 398H1007V378ZM1008 399V399 419H1007V399ZM1008 420V420 440H1007V420ZM1152 0V0 20H1151V0ZM1152 21V21 41H1151V21ZM1152 42V42 62H1151V42ZM1152 63V63 83H1151V63ZM1152 84V84 104H1151V84ZM1152 105V105 125H1151V105ZM1152 126V126 146H1151V126ZM1152 147V147 167H1151V147ZM1152 168V168 188H1151V168ZM1152 189V189 209H1151V189ZM1152 210V210 230H1151V210ZM1152 231V231 251H1151V231ZM1152 252V252 272H1151V252ZM1152 273V273 293H1151V273ZM1152 294V294 314H1151V294ZM1152 315V315 335H1151V315ZM1152 336V336 356H1151V336ZM1152 357V357 377H1151V357ZM1152 378V378 398H1151V378ZM1152 399V399 419H1151V399ZM1152 420V420 440H1151V420ZM1296 0V0 20H1295V0ZM1296 21V21 41H1295V21ZM1296 42V42 62H1295V42ZM1296 63V63 83H1295V63ZM1296 84V84 104H1295V84ZM1296 105V105 125H1295V105ZM1296 126V126 146H1295V126ZM1296 147V147 167H1295V147ZM1296 168V168 188H1295V168ZM1296 189V189 209H1295V189ZM1296 210V210 230H1295V210ZM1296 231V231 251H1295V231ZM1296 252V252 272H1295V252ZM1296 273V273 293H1295V273ZM1296 294V294 314H1295V294ZM1296 315V315 335H1295V315ZM1296 336V336 356H1295V336ZM1296 357V357 377H1295V357ZM1296 378V378 398H1295V378ZM1296 399V399 419H1295V399ZM1296 420V420 440H1295V420ZM1440 0V0 20H1439V0ZM1440 21V21 41H1439V21ZM1440 42V42 62H1439V42ZM1440 63V63 83H1439V63ZM1440 84V84 104H1439V84ZM1440 105V105 125H1439V105ZM1440 126V126 146H1439V126ZM1440 147V147 167H1439V147ZM1440 168V168 188H1439V168ZM1440 189V189 209H1439V189ZM1440 210V210 230H1439V210ZM1440 231V231 251H1439V231ZM1440 252V252 272H1439V252ZM1440 273V273 293H1439V273ZM1440 294V294 314H1439V294ZM1440 315V315 335H1439V315ZM1440 336V336 356H1439V336ZM1440 357V357 377H1439V357ZM1440 378V378 398H1439V378ZM1440 399V399 419H1439V399ZM1440 420V420 440H1439V420ZM1584 0V0 20H1583V0ZM1584 21V21 41H1583V21ZM1584 42V42 62H1583V42ZM1584 63V63 83H1583V63ZM1584 84V84 104H1583V84ZM1584 105V105 125H1583V105ZM1584 126V126 146H1583V126ZM1584 147V147 167H1583V147ZM1584 168V168 188H1583V168ZM1584 189V189 209H1583V189ZM1584 210V210 230H1583V210ZM1584 231V231 251H1583V231ZM1584 252V252 272H1583V252ZM1584 273V273 293H1583V273ZM1584 294V294 314H1583V294ZM1584 315V315 335H1583V315ZM1584 336V336 356H1583V336ZM1584 357V357 377H1583V357ZM1584 378V378 398H1583V378ZM1584 399V399 419H1583V399ZM1584 420V420 440H1583V420ZM1725 0V0 20H1724V0ZM1725 21V21 41H1724V21ZM1725 42V42 62H1724V42ZM1725 63V63 83H1724V63ZM1725 84V84 104H1724V84ZM1725 105V105 125H1724V105ZM1725 126V126 146H1724V126ZM1725 147V147 167H1724V147ZM1725 168V168 188H1724V168ZM1725 189V189 209H1724V189ZM1725 210V210 230H1724V210ZM1725 231V231 251H1724V231ZM1725 252V252 272H1724V252ZM1725 273V273 293H1724V273ZM1725 294V294 314H1724V294ZM1725 315V315 335H1724V315ZM1725 336V336 356H1724V336ZM1725 357V357 377H1724V357ZM1725 378V378 398H1724V378ZM1725 399V399 419H1724V399ZM1725 420V420 440H1724V420ZM-1-1V-1H1725V0H-1ZM-1 20V20H1725V21H-1ZM-1 41V41H1725V42H-1ZM-1 62V62H1725V63H-1ZM-1 83V83H1725V84H-1ZM-1 104V104H1725V105H-1ZM-1 125V125H1725V126H-1ZM-1 146V146H1725V147H-1ZM-1 167V167H1725V168H-1ZM-1 188V188H1725V189H-1ZM-1 209V209H1725V210H-1ZM-1 230V230H1725V231H-1ZM-1 251V251H1725V252H-1ZM-1 272V272H1725V273H-1ZM-1 293V293H1725V294H-1ZM-1 314V314H1725V315H-1ZM-1 335V335H1725V336H-1ZM-1 356V356H1725V357H-1ZM-1 377V377H1725V378H-1ZM-1 398V398H1725V399H-1ZM-1 419V419H1725V420H-1ZM-1 440V440H1725V441H-1Z" fill-opacity=".14901962"/>
<text xml:space="preserve" transform="matrix(.40092809 0 0 .40092809 50.4 54)" font-size="13" font-family="ArialMT"><tspan y="15.245117" x="3 12.386001 19.614003 30.443003 37.671007 44.899007">Number</tspan></text>
<text xml:space="preserve" transform="matrix(.40092809 0 0 .40092809 50.4 54)" font-size="13" font-family="ArialMT"><tspan y="15.245117" x="147 155.658 159.987 170.816 177.316 184.54399 191.77199 198.99999 208.38599">Arms_down</tspan></text>
<text xml:space="preserve" transform="matrix(.40092809 0 0 .40092809 50.4 54)" font-size="13" font-family="ArialMT"><tspan y="15.245117" x="291 299.658 302.54399 309.77198 314.10099 324.93 332.158 339.386">Alarm_on</tspan></text>
<text xml:space="preserve" transform="matrix(.40092809 0 0 .40092809 50.4 54)" font-size="13" font-family="ArialMT"><tspan y="15.245117" x="435 444.386 451.61399 455.943 459.544 466.772 474 481.228 488.456 495.684 502.912 510.13999 517.368 521.69699 528.925 535.425 542.653 549.88107">Northbound_present</tspan></text>
<text xml:space="preserve" transform="matrix(.40092809 0 0 .40092809 50.4 54)" font-size="13" font-family="ArialMT"><tspan y="15.245117" x="579 587.658 594.88607 602.1141 605.7151 612.9431 620.17117 627.3992 634.6272 641.8552 649.08328 656.3113 663.5393 667.8683 675.0963 681.5963 688.82437 696.05239">Southbound_present</tspan></text>
<text xml:space="preserve" transform="matrix(.40092809 0 0 .40092809 50.4 54)" font-size="13" font-family="ArialMT"><tspan y="15.245117" x="723 730.228 737.45608 741.78506 745.38607 752.6141 759.8421 767.0701 774.29818 781.5262 785.85519 793.0832 800.3112 806.8112">north_approach</tspan></text>
<text xml:space="preserve" transform="matrix(.40092809 0 0 .40092809 50.4 54)" font-size="13" font-family="ArialMT"><tspan y="15.245117" x="867 874.228 881.45608 885.78506 889.38607 896.6141 903.8421 911.0701 918.29818 925.5262 932.7542 937.0832">north_depart</tspan></text>
<text xml:space="preserve" transform="matrix(.40092809 0 0 .40092809 50.4 54)" font-size="13" font-family="ArialMT"><tspan y="15.245117" x="1011 1017.5 1024.728 1031.956 1035.557 1042.785 1050.0131 1057.2411 1064.4691 1071.6972 1076.0261 1083.2542 1090.4822 1096.9822">south_approach</tspan></text>
<text xml:space="preserve" transform="matrix(.40092809 0 0 .40092809 50.4 54)" font-size="13" font-family="ArialMT"><tspan y="15.245117" x="1155 1161.5 1168.728 1175.956 1179.557 1186.785 1194.0131 1201.2411 1208.4691 1215.6972 1222.9252 1227.2542">south_depart</tspan></text>
<text xml:space="preserve" transform="matrix(.40092809 0 0 .40092809 50.4 54)" font-size="13" font-family="ArialMT"><tspan y="15.245117" x="1299 1302.601 1305.4869 1316.3159 1323.544 1330.772 1338 1340.886 1348.114 1355.342 1361.842 1369.0701">time_elapsed</tspan></text>
<text xml:space="preserve" transform="matrix(.40092809 0 0 .40092809 50.4 54)" font-size="13" font-family="ArialMT"><tspan y="15.245117" x="1443 1449.5 1456.728 1460.329 1467.557 1471.158 1477.658 1484.886 1492.114 1499.342 1505.842 1513.0701 1517.399">safety_hazard</tspan></text>
<text xml:space="preserve" transform="matrix(.40092809 0 0 .40092809 50.4 54)" font-size="13" font-family="ArialMT"><tspan y="15.245117" x="1587 1594.4491 1598.7781 1606.0061 1613.2341 1619.7341 1622.6201 1626.2211 1629.107 1636.3351 1643.5631 1647.1641 1655.822 1659.423 1666.651 1670.252">Transition State</tspan></text>
<text xml:space="preserve" transform="matrix(.40092809 0 0 .40092809 50.4 54)" font-size="13" font-family="ArialMT"><tspan y="36.245119" x="132.77002">0</tspan></text>
<text xml:space="preserve" transform="matrix(.40092809 0 0 .40092809 50.4 54)" font-size="13" font-family="ArialMT"><tspan y="36.245119" x="276.77003">0</tspan></text>
<text xml:space="preserve" transform="matrix(.40092809 0 0 .40092809 50.4 54)" font-size="13" font-family="ArialMT"><tspan y="36.245119" x="420.77003">0</tspan></text>
<text xml:space="preserve" transform="matrix(.40092809 0 0 .40092809 50.4 54)" font-size="13" font-family="ArialMT"><tspan y="36.245119" x="564.77">0</tspan></text>
<text xml:space="preserve" transform="matrix(.40092809 0 0 .40092809 50.4 54)" font-size="13" font-family="ArialMT"><tspan y="36.245119" x="708.77">0</tspan></text>
<text xml:space="preserve" transform="matrix(.40092809 0 0 .40092809 50.4 54)" font-size="13" font-family="ArialMT"><tspan y="36.245119" x="852.77">0</tspan></text>
<text xml:space="preserve" transform="matrix(.40092809 0 0 .40092809 50.4 54)" font-size="13" font-family="ArialMT"><tspan y="36.245119" x="996.77">0</tspan></text>
<text xml:space="preserve" transform="matrix(.40092809 0 0 .40092809 50.4 54)" font-size="13" font-family="ArialMT"><tspan y="36.245119" x="1140.77">0</tspan></text>
<text xml:space="preserve" transform="matrix(.40092809 0 0 .40092809 50.4 54)" font-size="13" font-family="ArialMT"><tspan y="36.245119" x="1284.77">0</tspan></text>
<text xml:space="preserve" transform="matrix(.40092809 0 0 .40092809 50.4 54)" font-size="13" font-family="ArialMT"><tspan y="36.245119" x="1428.77">0</tspan></text>
<text xml:space="preserve" transform="matrix(.40092809 0 0 .40092809 50.4 54)" font-size="13" font-family="ArialMT"><tspan y="36.245119" x="1443 1452.386">No</tspan></text>
<text xml:space="preserve" transform="matrix(.40092809 0 0 .40092809 50.4 54)" font-size="13" font-family="ArialMT"><tspan y="36.245119" x="1713.77">0</tspan></text>
<text xml:space="preserve" transform="matrix(.40092809 0 0 .40092809 50.4 54)" font-size="13" font-family="ArialMT"><tspan y="57.245119" x="132.77002">1</tspan></text>
<text xml:space="preserve" transform="matrix(.40092809 0 0 .40092809 50.4 54)" font-size="13" font-family="ArialMT"><tspan y="57.245119" x="276.77003">0</tspan></text>
<text xml:space="preserve" transform="matrix(.40092809 0 0 .40092809 50.4 54)" font-size="13" font-family="ArialMT"><tspan y="57.245119" x="420.77003">0</tspan></text>
<text xml:space="preserve" transform="matrix(.40092809 0 0 .40092809 50.4 54)" font-size="13" font-family="ArialMT"><tspan y="57.245119" x="564.77">0</tspan></text>
<text xml:space="preserve" transform="matrix(.40092809 0 0 .40092809 50.4 54)" font-size="13" font-family="ArialMT"><tspan y="57.245119" x="708.77">1</tspan></text>
<text xml:space="preserve" transform="matrix(.40092809 0 0 .40092809 50.4 54)" font-size="13" font-family="ArialMT"><tspan y="57.245119" x="852.77">0</tspan></text>
<text xml:space="preserve" transform="matrix(.40092809 0 0 .40092809 50.4 54)" font-size="13" font-family="ArialMT"><tspan y="57.245119" x="996.77">0</tspan></text>
<text xml:space="preserve" transform="matrix(.40092809 0 0 .40092809 50.4 54)" font-size="13" font-family="ArialMT"><tspan y="57.245119" x="1140.77">1</tspan></text>
<text xml:space="preserve" transform="matrix(.40092809 0 0 .40092809 50.4 54)" font-size="13" font-family="ArialMT"><tspan y="57.245119" x="1284.77">0</tspan></text>
<text xml:space="preserve" transform="matrix(.40092809 0 0 .40092809 50.4 54)" font-size="13" font-family="ArialMT"><tspan y="57.245119" x="1428.77">0</tspan></text>
<text xml:space="preserve" transform="matrix(.40092809 0 0 .40092809 50.4 54)" font-size="13" font-family="ArialMT"><tspan y="57.245119" x="1443 1450.475 1457.703 1464.203 1467.804 1475.032">Yes 16</tspan></text>
<text xml:space="preserve" transform="matrix(.40092809 0 0 .40092809 50.4 54)" font-size="13" font-family="ArialMT"><tspan y="78.24512" x="132.77002">2</tspan></text>
<text xml:space="preserve" transform="matrix(.40092809 0 0 .40092809 50.4 54)" font-size="13" font-family="ArialMT"><tspan y="78.24512" x="276.77003">0</tspan></text>
<text xml:space="preserve" transform="matrix(.40092809 0 0 .40092809 50.4 54)" font-size="13" font-family="ArialMT"><tspan y="78.24512" x="420.77003">0</tspan></text>
<text xml:space="preserve" transform="matrix(.40092809 0 0 .40092809 50.4 54)" font-size="13" font-family="ArialMT"><tspan y="78.24512" x="564.77">1</tspan></text>
<text xml:space="preserve" transform="matrix(.40092809 0 0 .40092809 50.4 54)" font-size="13" font-family="ArialMT"><tspan y="78.24512" x="708.77">0</tspan></text>
<text xml:space="preserve" transform="matrix(.40092809 0 0 .40092809 50.4 54)" font-size="13" font-family="ArialMT"><tspan y="78.24512" x="852.77">1</tspan></text>
<text xml:space="preserve" transform="matrix(.40092809 0 0 .40092809 50.4 54)" font-size="13" font-family="ArialMT"><tspan y="78.24512" x="996.77">0</tspan></text>
<text xml:space="preserve" transform="matrix(.40092809 0 0 .40092809 50.4 54)" font-size="13" font-family="ArialMT"><tspan y="78.24512" x="1140.77">0</tspan></text>
<text xml:space="preserve" transform="matrix(.40092809 0 0 .40092809 50.4 54)" font-size="13" font-family="ArialMT"><tspan y="78.24512" x="1284.77">0</tspan></text>
<text xml:space="preserve" transform="matrix(.40092809 0 0 .40092809 50.4 54)" font-size="13" font-family="ArialMT"><tspan y="78.24512" x="1428.77">0</tspan></text>
<text xml:space="preserve" transform="matrix(.40092809 0 0 .40092809 50.4 54)" font-size="13" font-family="ArialMT"><tspan y="78.24512" x="1443 1450.475 1457.703 1464.203 1467.804 1475.032">Yes 16</tspan></text>
<text xml:space="preserve" transform="matrix(.40092809 0 0 .40092809 50.4 54)" font-size="13" font-family="ArialMT"><tspan y="99.24512" x="132.77002">3</tspan></text>
<text xml:space="preserve" transform="matrix(.40092809 0 0 .40092809 50.4 54)" font-size="13" font-family="ArialMT"><tspan y="99.24512" x="276.77003">0</tspan></text>
<text xml:space="preserve" transform="matrix(.40092809 0 0 .40092809 50.4 54)" font-size="13" font-family="ArialMT"><tspan y="99.24512" x="420.77003">0</tspan></text>
<text xml:space="preserve" transform="matrix(.40092809 0 0 .40092809 50.4 54)" font-size="13" font-family="ArialMT"><tspan y="99.24512" x="564.77">1</tspan></text>
<text xml:space="preserve" transform="matrix(.40092809 0 0 .40092809 50.4 54)" font-size="13" font-family="ArialMT"><tspan y="99.24512" x="708.77">1</tspan></text>
<text xml:space="preserve" transform="matrix(.40092809 0 0 .40092809 50.4 54)" font-size="13" font-family="ArialMT"><tspan y="99.24512" x="852.77">1</tspan></text>
<text xml:space="preserve" transform="matrix(.40092809 0 0 .40092809 50.4 54)" font-size="13" font-family="ArialMT"><tspan y="99.24512" x="996.77">0</tspan></text>
<text xml:space="preserve" transform="matrix(.40092809 0 0 .40092809 50.4 54)" font-size="13" font-family="ArialMT"><tspan y="99.24512" x="1140.77">1</tspan></text>
<text xml:space="preserve" transform="matrix(.40092809 0 0 .40092809 50.4 54)" font-size="13" font-family="ArialMT"><tspan y="99.24512" x="1284.77">0</tspan></text>
<text xml:space="preserve" transform="matrix(.40092809 0 0 .40092809 50.4 54)" font-size="13" font-family="ArialMT"><tspan y="99.24512" x="1428.77">0</tspan></text>
<text xml:space="preserve" transform="matrix(.40092809 0 0 .40092809 50.4 54)" font-size="13" font-family="ArialMT"><tspan y="99.24512" x="1443 1450.475 1457.703 1464.203 1467.804 1475.032">Yes 16</tspan></text>
<text xml:space="preserve" transform="matrix(.40092809 0 0 .40092809 50.4 54)" font-size="13" font-family="ArialMT"><tspan y="120.24512" x="132.77002">4</tspan></text>
<text xml:space="preserve" transform="matrix(.40092809 0 0 .40092809 50.4 54)" font-size="13" font-family="ArialMT"><tspan y="120.24512" x="276.77003">0</tspan></text>
<text xml:space="preserve" transform="matrix(.40092809 0 0 .40092809 50.4 54)" font-size="13" font-family="ArialMT"><tspan y="120.24512" x="420.77003">1</tspan></text>
<text xml:space="preserve" transform="matrix(.40092809 0 0 .40092809 50.4 54)" font-size="13" font-family="ArialMT"><tspan y="120.24512" x="564.77">0</tspan></text>
<text xml:space="preserve" transform="matrix(.40092809 0 0 .40092809 50.4 54)" font-size="13" font-family="ArialMT"><tspan y="120.24512" x="708.77">0</tspan></text>
<text xml:space="preserve" transform="matrix(.40092809 0 0 .40092809 50.4 54)" font-size="13" font-family="ArialMT"><tspan y="120.24512" x="852.77">0</tspan></text>
<text xml:space="preserve" transform="matrix(.40092809 0 0 .40092809 50.4 54)" font-size="13" font-family="ArialMT"><tspan y="120.24512" x="996.77">0</tspan></text>
<text xml:space="preserve" transform="matrix(.40092809 0 0 .40092809 50.4 54)" font-size="13" font-family="ArialMT"><tspan y="120.24512" x="1140.77">0</tspan></text>
<text xml:space="preserve" transform="matrix(.40092809 0 0 .40092809 50.4 54)" font-size="13" font-family="ArialMT"><tspan y="120.24512" x="1284.77">0</tspan></text>
<text xml:space="preserve" transform="matrix(.40092809 0 0 .40092809 50.4 54)" font-size="13" font-family="ArialMT"><tspan y="120.24512" x="1428.77">1</tspan></text>
<text xml:space="preserve" transform="matrix(.40092809 0 0 .40092809 50.4 54)" font-size="13" font-family="ArialMT"><tspan y="120.24512" x="1443 1452.386">No</tspan></text>
<text xml:space="preserve" transform="matrix(.40092809 0 0 .40092809 50.4 54)" font-size="13" font-family="ArialMT"><tspan y="120.24512" x="1713.77">0</tspan></text>
<text xml:space="preserve" transform="matrix(.40092809 0 0 .40092809 50.4 54)" font-size="13" font-family="ArialMT"><tspan y="141.24512" x="132.77002">5</tspan></text>
<text xml:space="preserve" transform="matrix(.40092809 0 0 .40092809 50.4 54)" font-size="13" font-family="ArialMT"><tspan y="141.24512" x="276.77003">0</tspan></text>
<text xml:space="preserve" transform="matrix(.40092809 0 0 .40092809 50.4 54)" font-size="13" font-family="ArialMT"><tspan y="141.24512" x="420.77003">1</tspan></text>
<text xml:space="preserve" transform="matrix(.40092809 0 0 .40092809 50.4 54)" font-size="13" font-family="ArialMT"><tspan y="141.24512" x="564.77">0</tspan></text>
<text xml:space="preserve" transform="matrix(.40092809 0 0 .40092809 50.4 54)" font-size="13" font-family="ArialMT"><tspan y="141.24512" x="708.77">1</tspan></text>
<text xml:space="preserve" transform="matrix(.40092809 0 0 .40092809 50.4 54)" font-size="13" font-family="ArialMT"><tspan y="141.24512" x="852.77">0</tspan></text>
<text xml:space="preserve" transform="matrix(.40092809 0 0 .40092809 50.4 54)" font-size="13" font-family="ArialMT"><tspan y="141.24512" x="996.77">0</tspan></text>
<text xml:space="preserve" transform="matrix(.40092809 0 0 .40092809 50.4 54)" font-size="13" font-family="ArialMT"><tspan y="141.24512" x="1140.77">1</tspan></text>
<text xml:space="preserve" transform="matrix(.40092809 0 0 .40092809 50.4 54)" font-size="13" font-family="ArialMT"><tspan y="141.24512" x="1284.77">0</tspan></text>
<text xml:space="preserve" transform="matrix(.40092809 0 0 .40092809 50.4 54)" font-size="13" font-family="ArialMT"><tspan y="141.24512" x="1428.77">1</tspan></text>
<text xml:space="preserve" transform="matrix(.40092809 0 0 .40092809 50.4 54)" font-size="13" font-family="ArialMT"><tspan y="141.24512" x="1443 1452.386">No</tspan></text>
<text xml:space="preserve" transform="matrix(.40092809 0 0 .40092809 50.4 54)" font-size="13" font-family="ArialMT"><tspan y="141.24512" x="1713.77">4</tspan></text>
<text xml:space="preserve" transform="matrix(.40092809 0 0 .40092809 50.4 54)" font-size="13" font-family="ArialMT"><tspan y="162.24512" x="132.77002">6</tspan></text>
<text xml:space="preserve" transform="matrix(.40092809 0 0 .40092809 50.4 54)" font-size="13" font-family="ArialMT"><tspan y="162.24512" x="276.77003">0</tspan></text>
<text xml:space="preserve" transform="matrix(.40092809 0 0 .40092809 50.4 54)" font-size="13" font-family="ArialMT"><tspan y="162.24512" x="420.77003">1</tspan></text>
<text xml:space="preserve" transform="matrix(.40092809 0 0 .40092809 50.4 54)" font-size="13" font-family="ArialMT"><tspan y="162.24512" x="564.77">1</tspan></text>
<text xml:space="preserve" transform="matrix(.40092809 0 0 .40092809 50.4 54)" font-size="13" font-family="ArialMT"><tspan y="162.24512" x="708.77">0</tspan></text>
<text xml:space="preserve" transform="matrix(.40092809 0 0 .40092809 50.4 54)" font-size="13" font-family="ArialMT"><tspan y="162.24512" x="852.77">1</tspan></text>
<text xml:space="preserve" transform="matrix(.40092809 0 0 .40092809 50.4 54)" font-size="13" font-family="ArialMT"><tspan y="162.24512" x="996.77">0</tspan></text>
<text xml:space="preserve" transform="matrix(.40092809 0 0 .40092809 50.4 54)" font-size="13" font-family="ArialMT"><tspan y="162.24512" x="1140.77">0</tspan></text>
<text xml:space="preserve" transform="matrix(.40092809 0 0 .40092809 50.4 54)" font-size="13" font-family="ArialMT"><tspan y="162.24512" x="1284.77">0</tspan></text>
<text xml:space="preserve" transform="matrix(.40092809 0 0 .40092809 50.4 54)" font-size="13" font-family="ArialMT"><tspan y="162.24512" x="1428.77">1</tspan></text>
<text xml:space="preserve" transform="matrix(.40092809 0 0 .40092809 50.4 54)" font-size="13" font-family="ArialMT"><tspan y="162.24512" x="1443 1452.386">No</tspan></text>
<text xml:space="preserve" transform="matrix(.40092809 0 0 .40092809 50.4 54)" font-size="13" font-family="ArialMT"><tspan y="162.24512" x="1713.77">4</tspan></text>
<text xml:space="preserve" transform="matrix(.40092809 0 0 .40092809 50.4 54)" font-size="13" font-family="ArialMT"><tspan y="183.24512" x="132.77002">7</tspan></text>
<text xml:space="preserve" transform="matrix(.40092809 0 0 .40092809 50.4 54)" font-size="13" font-family="ArialMT"><tspan y="183.24512" x="276.77003">0</tspan></text>
<text xml:space="preserve" transform="matrix(.40092809 0 0 .40092809 50.4 54)" font-size="13" font-family="ArialMT"><tspan y="183.24512" x="420.77003">1</tspan></text>
<text xml:space="preserve" transform="matrix(.40092809 0 0 .40092809 50.4 54)" font-size="13" font-family="ArialMT"><tspan y="183.24512" x="564.77">1</tspan></text>
<text xml:space="preserve" transform="matrix(.40092809 0 0 .40092809 50.4 54)" font-size="13" font-family="ArialMT"><tspan y="183.24512" x="708.77">1</tspan></text>
<text xml:space="preserve" transform="matrix(.40092809 0 0 .40092809 50.4 54)" font-size="13" font-family="ArialMT"><tspan y="183.24512" x="852.77">1</tspan></text>
<text xml:space="preserve" transform="matrix(.40092809 0 0 .40092809 50.4 54)" font-size="13" font-family="ArialMT"><tspan y="183.24512" x="996.77">0</tspan></text>
<text xml:space="preserve" transform="matrix(.40092809 0 0 .40092809 50.4 54)" font-size="13" font-family="ArialMT"><tspan y="183.24512" x="1140.77">1</tspan></text>
<text xml:space="preserve" transform="matrix(.40092809 0 0 .40092809 50.4 54)" font-size="13" font-family="ArialMT"><tspan y="183.24512" x="1284.77">0</tspan></text>
<text xml:space="preserve" transform="matrix(.40092809 0 0 .40092809 50.4 54)" font-size="13" font-family="ArialMT"><tspan y="183.24512" x="1428.77">1</tspan></text>
<text xml:space="preserve" transform="matrix(.40092809 0 0 .40092809 50.4 54)" font-size="13" font-family="ArialMT"><tspan y="183.24512" x="1443 1452.386">No</tspan></text>
<text xml:space="preserve" transform="matrix(.40092809 0 0 .40092809 50.4 54)" font-size="13" font-family="ArialMT"><tspan y="183.24512" x="1713.77">4</tspan></text>
<text xml:space="preserve" transform="matrix(.40092809 0 0 .40092809 50.4 54)" font-size="13" font-family="ArialMT"><tspan y="204.24512" x="132.77002">8</tspan></text>
<text xml:space="preserve" transform="matrix(.40092809 0 0 .40092809 50.4 54)" font-size="13" font-family="ArialMT"><tspan y="204.24512" x="276.77003">1</tspan></text>
<text xml:space="preserve" transform="matrix(.40092809 0 0 .40092809 50.4 54)" font-size="13" font-family="ArialMT"><tspan y="204.24512" x="420.77003">0</tspan></text>
<text xml:space="preserve" transform="matrix(.40092809 0 0 .40092809 50.4 54)" font-size="13" font-family="ArialMT"><tspan y="204.24512" x="564.77">0</tspan></text>
<text xml:space="preserve" transform="matrix(.40092809 0 0 .40092809 50.4 54)" font-size="13" font-family="ArialMT"><tspan y="204.24512" x="708.77">0</tspan></text>
<text xml:space="preserve" transform="matrix(.40092809 0 0 .40092809 50.4 54)" font-size="13" font-family="ArialMT"><tspan y="204.24512" x="852.77">0</tspan></text>
<text xml:space="preserve" transform="matrix(.40092809 0 0 .40092809 50.4 54)" font-size="13" font-family="ArialMT"><tspan y="204.24512" x="996.77">0</tspan></text>
<text xml:space="preserve" transform="matrix(.40092809 0 0 .40092809 50.4 54)" font-size="13" font-family="ArialMT"><tspan y="204.24512" x="1140.77">0</tspan></text>
<text xml:space="preserve" transform="matrix(.40092809 0 0 .40092809 50.4 54)" font-size="13" font-family="ArialMT"><tspan y="204.24512" x="1284.77">0</tspan></text>
<text xml:space="preserve" transform="matrix(.40092809 0 0 .40092809 50.4 54)" font-size="13" font-family="ArialMT"><tspan y="204.24512" x="1428.77">0</tspan></text>
<text xml:space="preserve" transform="matrix(.40092809 0 0 .40092809 50.4 54)" font-size="13" font-family="ArialMT"><tspan y="204.24512" x="1443 1452.386">No</tspan></text>
<text xml:space="preserve" transform="matrix(.40092809 0 0 .40092809 50.4 54)" font-size="13" font-family="ArialMT"><tspan y="204.24512" x="1713.77">4</tspan></text>
<text xml:space="preserve" transform="matrix(.40092809 0 0 .40092809 50.4 54)" font-size="13" font-family="ArialMT"><tspan y="225.24512" x="132.77002">9</tspan></text>
<text xml:space="preserve" transform="matrix(.40092809 0 0 .40092809 50.4 54)" font-size="13" font-family="ArialMT"><tspan y="225.24512" x="276.77003">1</tspan></text>
<text xml:space="preserve" transform="matrix(.40092809 0 0 .40092809 50.4 54)" font-size="13" font-family="ArialMT"><tspan y="225.24512" x="420.77003">0</tspan></text>
<text xml:space="preserve" transform="matrix(.40092809 0 0 .40092809 50.4 54)" font-size="13" font-family="ArialMT"><tspan y="225.24512" x="564.77">0</tspan></text>
<text xml:space="preserve" transform="matrix(.40092809 0 0 .40092809 50.4 54)" font-size="13" font-family="ArialMT"><tspan y="225.24512" x="708.77">1</tspan></text>
<text xml:space="preserve" transform="matrix(.40092809 0 0 .40092809 50.4 54)" font-size="13" font-family="ArialMT"><tspan y="225.24512" x="852.77">0</tspan></text>
<text xml:space="preserve" transform="matrix(.40092809 0 0 .40092809 50.4 54)" font-size="13" font-family="ArialMT"><tspan y="225.24512" x="996.77">0</tspan></text>
<text xml:space="preserve" transform="matrix(.40092809 0 0 .40092809 50.4 54)" font-size="13" font-family="ArialMT"><tspan y="225.24512" x="1140.77">1</tspan></text>
<text xml:space="preserve" transform="matrix(.40092809 0 0 .40092809 50.4 54)" font-size="13" font-family="ArialMT"><tspan y="225.24512" x="1284.77">0</tspan></text>
<text xml:space="preserve" transform="matrix(.40092809 0 0 .40092809 50.4 54)" font-size="13" font-family="ArialMT"><tspan y="225.24512" x="1428.77">0</tspan></text>
<text xml:space="preserve" transform="matrix(.40092809 0 0 .40092809 50.4 54)" font-size="13" font-family="ArialMT"><tspan y="225.24512" x="1443 1450.475 1457.703 1464.203 1467.804 1475.032">Yes 16</tspan></text>
<text xml:space="preserve" transform="matrix(.40092809 0 0 .40092809 50.4 54)" font-size="13" font-family="ArialMT"><tspan y="246.24512" x="125.54004 132.76804">10</tspan></text>
<text xml:space="preserve" transform="matrix(.40092809 0 0 .40092809 50.4 54)" font-size="13" font-family="ArialMT"><tspan y="246.24512" x="276.77003">1</tspan></text>
<text xml:space="preserve" transform="matrix(.40092809 0 0 .40092809 50.4 54)" font-size="13" font-family="ArialMT"><tspan y="246.24512" x="420.77003">0</tspan></text>
<text xml:space="preserve" transform="matrix(.40092809 0 0 .40092809 50.4 54)" font-size="13" font-family="ArialMT"><tspan y="246.24512" x="564.77">1</tspan></text>
<text xml:space="preserve" transform="matrix(.40092809 0 0 .40092809 50.4 54)" font-size="13" font-family="ArialMT"><tspan y="246.24512" x="708.77">0</tspan></text>
<text xml:space="preserve" transform="matrix(.40092809 0 0 .40092809 50.4 54)" font-size="13" font-family="ArialMT"><tspan y="246.24512" x="852.77">1</tspan></text>
<text xml:space="preserve" transform="matrix(.40092809 0 0 .40092809 50.4 54)" font-size="13" font-family="ArialMT"><tspan y="246.24512" x="996.77">0</tspan></text>
<text xml:space="preserve" transform="matrix(.40092809 0 0 .40092809 50.4 54)" font-size="13" font-family="ArialMT"><tspan y="246.24512" x="1140.77">0</tspan></text>
<text xml:space="preserve" transform="matrix(.40092809 0 0 .40092809 50.4 54)" font-size="13" font-family="ArialMT"><tspan y="246.24512" x="1284.77">0</tspan></text>
<text xml:space="preserve" transform="matrix(.40092809 0 0 .40092809 50.4 54)" font-size="13" font-family="ArialMT"><tspan y="246.24512" x="1428.77">0</tspan></text>
<text xml:space="preserve" transform="matrix(.40092809 0 0 .40092809 50.4 54)" font-size="13" font-family="ArialMT"><tspan y="246.24512" x="1443 1450.475 1457.703 1464.203 1467.804 1475.032">Yes 16</tspan></text>
<text xml:space="preserve" transform="matrix(.40092809 0 0 .40092809 50.4 54)" font-size="13" font-family="ArialMT"><tspan y="267.24513" x="126.50488 133.73288">11</tspan></text>
<text xml:space="preserve" transform="matrix(.40092809 0 0 .40092809 50.4 54)" font-size="13" font-family="ArialMT"><tspan y="267.24513" x="276.77003">1</tspan></text>
<text xml:space="preserve" transform="matrix(.40092809 0 0 .40092809 50.4 54)" font-size="13" font-family="ArialMT"><tspan y="267.24513" x="420.77003">0</tspan></text>
<text xml:space="preserve" transform="matrix(.40092809 0 0 .40092809 50.4 54)" font-size="13" font-family="ArialMT"><tspan y="267.24513" x="564.77">1</tspan></text>
<text xml:space="preserve" transform="matrix(.40092809 0 0 .40092809 50.4 54)" font-size="13" font-family="ArialMT"><tspan y="267.24513" x="708.77">1</tspan></text>
<text xml:space="preserve" transform="matrix(.40092809 0 0 .40092809 50.4 54)" font-size="13" font-family="ArialMT"><tspan y="267.24513" x="852.77">1</tspan></text>
<text xml:space="preserve" transform="matrix(.40092809 0 0 .40092809 50.4 54)" font-size="13" font-family="ArialMT"><tspan y="267.24513" x="996.77">0</tspan></text>
<text xml:space="preserve" transform="matrix(.40092809 0 0 .40092809 50.4 54)" font-size="13" font-family="ArialMT"><tspan y="267.24513" x="1140.77">1</tspan></text>
<text xml:space="preserve" transform="matrix(.40092809 0 0 .40092809 50.4 54)" font-size="13" font-family="ArialMT"><tspan y="267.24513" x="1284.77">0</tspan></text>
<text xml:space="preserve" transform="matrix(.40092809 0 0 .40092809 50.4 54)" font-size="13" font-family="ArialMT"><tspan y="267.24513" x="1428.77">0</tspan></text>
<text xml:space="preserve" transform="matrix(.40092809 0 0 .40092809 50.4 54)" font-size="13" font-family="ArialMT"><tspan y="267.24513" x="1443 1450.475 1457.703 1464.203 1467.804 1475.032">Yes 16</tspan></text>
<text xml:space="preserve" transform="matrix(.40092809 0 0 .40092809 50.4 54)" font-size="13" font-family="ArialMT"><tspan y="288.24513" x="125.54004 132.76804">12</tspan></text>
<text xml:space="preserve" transform="matrix(.40092809 0 0 .40092809 50.4 54)" font-size="13" font-family="ArialMT"><tspan y="288.24513" x="276.77003">1</tspan></text>
<text xml:space="preserve" transform="matrix(.40092809 0 0 .40092809 50.4 54)" font-size="13" font-family="ArialMT"><tspan y="288.24513" x="420.77003">1</tspan></text>
<text xml:space="preserve" transform="matrix(.40092809 0 0 .40092809 50.4 54)" font-size="13" font-family="ArialMT"><tspan y="288.24513" x="564.77">0</tspan></text>
<text xml:space="preserve" transform="matrix(.40092809 0 0 .40092809 50.4 54)" font-size="13" font-family="ArialMT"><tspan y="288.24513" x="708.77">0</tspan></text>
<text xml:space="preserve" transform="matrix(.40092809 0 0 .40092809 50.4 54)" font-size="13" font-family="ArialMT"><tspan y="288.24513" x="852.77">0</tspan></text>
<text xml:space="preserve" transform="matrix(.40092809 0 0 .40092809 50.4 54)" font-size="13" font-family="ArialMT"><tspan y="288.24513" x="996.77">0</tspan></text>
<text xml:space="preserve" transform="matrix(.40092809 0 0 .40092809 50.4 54)" font-size="13" font-family="ArialMT"><tspan y="288.24513" x="1140.77">0</tspan></text>
<text xml:space="preserve" transform="matrix(.40092809 0 0 .40092809 50.4 54)" font-size="13" font-family="ArialMT"><tspan y="288.24513" x="1284.77">0</tspan></text>
<text xml:space="preserve" transform="matrix(.40092809 0 0 .40092809 50.4 54)" font-size="13" font-family="ArialMT"><tspan y="288.24513" x="1428.77">1</tspan></text>
<text xml:space="preserve" transform="matrix(.40092809 0 0 .40092809 50.4 54)" font-size="13" font-family="ArialMT"><tspan y="288.24513" x="1443 1452.386">No</tspan></text>
<text xml:space="preserve" transform="matrix(.40092809 0 0 .40092809 50.4 54)" font-size="13" font-family="ArialMT"><tspan y="288.24513" x="1713.77">0</tspan></text>
<text xml:space="preserve" transform="matrix(.40092809 0 0 .40092809 50.4 54)" font-size="13" font-family="ArialMT"><tspan y="309.24513" x="125.54004 132.76804">13</tspan></text>
<text xml:space="preserve" transform="matrix(.40092809 0 0 .40092809 50.4 54)" font-size="13" font-family="ArialMT"><tspan y="309.24513" x="276.77003">1</tspan></text>
<text xml:space="preserve" transform="matrix(.40092809 0 0 .40092809 50.4 54)" font-size="13" font-family="ArialMT"><tspan y="309.24513" x="420.77003">1</tspan></text>
<text xml:space="preserve" transform="matrix(.40092809 0 0 .40092809 50.4 54)" font-size="13" font-family="ArialMT"><tspan y="309.24513" x="564.77">0</tspan></text>
<text xml:space="preserve" transform="matrix(.40092809 0 0 .40092809 50.4 54)" font-size="13" font-family="ArialMT"><tspan y="309.24513" x="708.77">1</tspan></text>
<text xml:space="preserve" transform="matrix(.40092809 0 0 .40092809 50.4 54)" font-size="13" font-family="ArialMT"><tspan y="309.24513" x="852.77">0</tspan></text>
<text xml:space="preserve" transform="matrix(.40092809 0 0 .40092809 50.4 54)" font-size="13" font-family="ArialMT"><tspan y="309.24513" x="996.77">0</tspan></text>
<text xml:space="preserve" transform="matrix(.40092809 0 0 .40092809 50.4 54)" font-size="13" font-family="ArialMT"><tspan y="309.24513" x="1140.77">0</tspan></text>
<text xml:space="preserve" transform="matrix(.40092809 0 0 .40092809 50.4 54)" font-size="13" font-family="ArialMT"><tspan y="309.24513" x="1284.77">1</tspan></text>
<text xml:space="preserve" transform="matrix(.40092809 0 0 .40092809 50.4 54)" font-size="13" font-family="ArialMT"><tspan y="309.24513" x="1428.77">1</tspan></text>
<text xml:space="preserve" transform="matrix(.40092809 0 0 .40092809 50.4 54)" font-size="13" font-family="ArialMT"><tspan y="309.24513" x="1443 1452.386">No</tspan></text>
<text xml:space="preserve" transform="matrix(.40092809 0 0 .40092809 50.4 54)" font-size="13" font-family="ArialMT"><tspan y="309.24513" x="1713.77">0</tspan></text>
<text xml:space="preserve" transform="matrix(.40092809 0 0 .40092809 50.4 54)" font-size="13" font-family="ArialMT"><tspan y="330.24513" x="125.54004 132.76804">14</tspan></text>
<text xml:space="preserve" transform="matrix(.40092809 0 0 .40092809 50.4 54)" font-size="13" font-family="ArialMT"><tspan y="330.24513" x="276.77003">1</tspan></text>
<text xml:space="preserve" transform="matrix(.40092809 0 0 .40092809 50.4 54)" font-size="13" font-family="ArialMT"><tspan y="330.24513" x="420.77003">1</tspan></text>
<text xml:space="preserve" transform="matrix(.40092809 0 0 .40092809 50.4 54)" font-size="13" font-family="ArialMT"><tspan y="330.24513" x="564.77">1</tspan></text>
<text xml:space="preserve" transform="matrix(.40092809 0 0 .40092809 50.4 54)" font-size="13" font-family="ArialMT"><tspan y="330.24513" x="708.77">0</tspan></text>
<text xml:space="preserve" transform="matrix(.40092809 0 0 .40092809 50.4 54)" font-size="13" font-family="ArialMT"><tspan y="330.24513" x="852.77">0</tspan></text>
<text xml:space="preserve" transform="matrix(.40092809 0 0 .40092809 50.4 54)" font-size="13" font-family="ArialMT"><tspan y="330.24513" x="996.77">1</tspan></text>
<text xml:space="preserve" transform="matrix(.40092809 0 0 .40092809 50.4 54)" font-size="13" font-family="ArialMT"><tspan y="330.24513" x="1140.77">0</tspan></text>
<text xml:space="preserve" transform="matrix(.40092809 0 0 .40092809 50.4 54)" font-size="13" font-family="ArialMT"><tspan y="330.24513" x="1284.77">0</tspan></text>
<text xml:space="preserve" transform="matrix(.40092809 0 0 .40092809 50.4 54)" font-size="13" font-family="ArialMT"><tspan y="330.24513" x="1428.77">1</tspan></text>
<text xml:space="preserve" transform="matrix(.40092809 0 0 .40092809 50.4 54)" font-size="13" font-family="ArialMT"><tspan y="330.24513" x="1443 1452.386">No</tspan></text>
<text xml:space="preserve" transform="matrix(.40092809 0 0 .40092809 50.4 54)" font-size="13" font-family="ArialMT"><tspan y="330.24513" x="1713.77">0</tspan></text>
<text xml:space="preserve" transform="matrix(.40092809 0 0 .40092809 50.4 54)" font-size="13" font-family="ArialMT"><tspan y="351.24513" x="125.54004 132.76804">15</tspan></text>
<text xml:space="preserve" transform="matrix(.40092809 0 0 .40092809 50.4 54)" font-size="13" font-family="ArialMT"><tspan y="351.24513" x="276.77003">1</tspan></text>
<text xml:space="preserve" transform="matrix(.40092809 0 0 .40092809 50.4 54)" font-size="13" font-family="ArialMT"><tspan y="351.24513" x="420.77003">1</tspan></text>
<text xml:space="preserve" transform="matrix(.40092809 0 0 .40092809 50.4 54)" font-size="13" font-family="ArialMT"><tspan y="351.24513" x="564.77">1</tspan></text>
<text xml:space="preserve" transform="matrix(.40092809 0 0 .40092809 50.4 54)" font-size="13" font-family="ArialMT"><tspan y="351.24513" x="708.77">1</tspan></text>
<text xml:space="preserve" transform="matrix(.40092809 0 0 .40092809 50.4 54)" font-size="13" font-family="ArialMT"><tspan y="351.24513" x="852.77">0</tspan></text>
<text xml:space="preserve" transform="matrix(.40092809 0 0 .40092809 50.4 54)" font-size="13" font-family="ArialMT"><tspan y="351.24513" x="996.77">1</tspan></text>
<text xml:space="preserve" transform="matrix(.40092809 0 0 .40092809 50.4 54)" font-size="13" font-family="ArialMT"><tspan y="351.24513" x="1140.77">0</tspan></text>
<text xml:space="preserve" transform="matrix(.40092809 0 0 .40092809 50.4 54)" font-size="13" font-family="ArialMT"><tspan y="351.24513" x="1284.77">1</tspan></text>
<text xml:space="preserve" transform="matrix(.40092809 0 0 .40092809 50.4 54)" font-size="13" font-family="ArialMT"><tspan y="351.24513" x="1428.77">1</tspan></text>
<text xml:space="preserve" transform="matrix(.40092809 0 0 .40092809 50.4 54)" font-size="13" font-family="ArialMT"><tspan y="351.24513" x="1443 1452.386">No</tspan></text>
<text xml:space="preserve" transform="matrix(.40092809 0 0 .40092809 50.4 54)" font-size="13" font-family="ArialMT"><tspan y="351.24513" x="1713.77">0</tspan></text>
<text xml:space="preserve" transform="matrix(.40092809 0 0 .40092809 50.4 54)" font-size="13" font-family="ArialMT"><tspan y="393.24513" x="3 12.386001 19.614003 30.443003 37.671007 44.899007">Number</tspan></text>
<text xml:space="preserve" transform="matrix(.40092809 0 0 .40092809 50.4 54)" font-size="13" font-family="ArialMT"><tspan y="393.24513" x="147 150.601 157.829 164.329 171.55699 175.88599 178.77199 185.99999 193.22798">Invariant</tspan></text>
<text xml:space="preserve" transform="matrix(.40092809 0 0 .40092809 50.4 54)" font-size="13" font-family="ArialMT"><tspan y="414.24513" x="125.54004 132.76804">16</tspan></text>
<text xml:space="preserve" transform="matrix(.40092809 0 0 .40092809 50.4 54)" font-size="13" font-family="ArialMT"><tspan y="414.24513" x="147 159.259 166.487 173.715 180.943 184.54399 191.77199 195.37299 198.97399 203.30298 210.53098 213.41698 220.64498 224.24597 227.13198 233.63198 237.23297 244.46097 248.78997 256.01799 262.51799 269.74598 276.97398 280.57499 284.176 287.777 295.005 302.233 305.834 313.062 317.39103 328.22004 334.72004 338.32106 349.15007 356.37806 362.87806 366.47908 370.08009 377.30809 384.53608 388.1371 395.36509 402.59309 411.97908 419.20707 422.80809 430.03608 437.26408 444.49208 448.09309 451.6941 458.9221 466.1501 469.7511 476.9791 479.86509 487.09309 491.4221 502.2511 505.8521 513.08016 520.30819">When a train is present the arms must be down and the alarm on.</tspan></text>
<text xml:space="preserve" transform="matrix(.40092809 0 0 .40092809 50.4 54)" font-size="13" font-family="ArialMT"><tspan y="435.24513" x="125.54004 132.76804">17</tspan></text>
</g>
</g>
</svg>
